<svg width="26" height="26" viewBox="0 0 26 26" fill="none" xmlns="http://www.w3.org/2000/svg">
<path d="M13 20.0833C12.702 20.0833 12.447 19.9772 12.2349 19.7651C12.0227 19.5529 11.9166 19.2979 11.9166 19C11.9166 18.7021 12.0227 18.447 12.2349 18.2349C12.447 18.0227 12.702 17.9166 13 17.9166C13.2979 17.9166 13.5529 18.0227 13.7651 18.2349C13.9772 18.447 14.0833 18.7021 14.0833 19C14.0833 19.2979 13.9772 19.5529 13.7651 19.7651C13.5529 19.9772 13.2979 20.0833 13 20.0833ZM13 14.0833C12.702 14.0833 12.447 13.9772 12.2349 13.7651C12.0227 13.5529 11.9166 13.2979 11.9166 13C11.9166 12.7021 12.0227 12.447 12.2349 12.2349C12.447 12.0227 12.702 11.9166 13 11.9166C13.2979 11.9166 13.5529 12.0227 13.7651 12.2349C13.9772 12.447 14.0833 12.7021 14.0833 13C14.0833 13.2979 13.9772 13.5529 13.7651 13.7651C13.5529 13.9772 13.2979 14.0833 13 14.0833ZM13 8.08332C12.702 8.08332 12.447 7.97724 12.2349 7.76509C12.0227 7.55294 11.9166 7.29789 11.9166 6.99996C11.9166 6.70204 12.0227 6.44701 12.2349 6.23486C12.447 6.0227 12.702 5.91663 13 5.91663C13.2979 5.91663 13.5529 6.0227 13.7651 6.23486C13.9772 6.44701 14.0833 6.70204 14.0833 6.99996C14.0833 7.29789 13.9772 7.55294 13.7651 7.76509C13.5529 7.97724 13.2979 8.08332 13 8.08332Z" fill="black"/>
</svg>
