<svg width="26" height="26" viewBox="0 0 26 26" fill="none" xmlns="http://www.w3.org/2000/svg">
<path d="M5.4165 15.1667V14.0834H12.9998V15.1667H5.4165ZM5.4165 10.8334V9.75008H17.3332V10.8334H5.4165ZM5.4165 6.50008V5.41675H17.3332V6.50008H5.4165ZM14.3332 20.5834V18.1897L20.1102 12.4397C20.2172 12.3327 20.3275 12.2605 20.4413 12.223C20.555 12.1855 20.6687 12.1668 20.7825 12.1668C20.9066 12.1668 21.0285 12.19 21.1482 12.2365C21.268 12.2831 21.3768 12.3529 21.4748 12.4459L22.4769 13.4688C22.5658 13.5758 22.6335 13.6869 22.68 13.8022C22.7266 13.9174 22.7498 14.0327 22.7498 14.148C22.7498 14.2633 22.7276 14.3796 22.6832 14.497C22.6387 14.6143 22.57 14.7265 22.4769 14.8334L16.7269 20.5834H14.3332ZM15.2915 19.6251H16.3207L20.0769 15.8626L19.5686 15.348L19.0748 14.8188L15.2915 18.5959V19.6251ZM19.5686 15.348L19.0748 14.8188L20.0769 15.8626L19.5686 15.348Z" fill="#6B6B6B"/>
</svg>
