<svg width="26" height="27" viewBox="0 0 26 27" fill="none" xmlns="http://www.w3.org/2000/svg">
<path d="M0.576904 9.92148C0.576904 8.10524 0.938792 6.41568 1.66257 4.85279C2.38634 3.28992 3.3703 1.94091 4.61444 0.805759L5.57069 1.84648C4.46279 2.84903 3.58962 4.04139 2.9512 5.42356C2.31281 6.80571 1.99361 8.30501 1.99361 9.92148H0.576904ZM24.0064 9.92148C24.0064 8.30501 23.6872 6.80116 23.0488 5.40993C22.4104 4.01869 21.5372 2.82179 20.4293 1.81924L21.3856 0.805759C22.6297 1.94091 23.6137 3.28992 24.3375 4.85279C25.0612 6.41568 25.4231 8.10524 25.4231 9.92148H24.0064ZM3.08334 22.5897V21.1731H5.37179V9.94871C5.37179 8.09798 5.95753 6.47018 7.12902 5.06532C8.30049 3.66044 9.78526 2.78546 11.5833 2.44038V1.66667C11.5833 1.27616 11.7218 0.942432 11.9988 0.665474C12.2758 0.388492 12.6095 0.25 13 0.25C13.3905 0.25 13.7242 0.388492 14.0012 0.665474C14.2782 0.942432 14.4167 1.27616 14.4167 1.66667V2.44038C16.2148 2.78546 17.6995 3.66044 18.871 5.06532C20.0425 6.47018 20.6282 8.09798 20.6282 9.94871V21.1731H22.9167V22.5897H3.08334ZM13 26.2949C12.3661 26.2949 11.8263 26.0719 11.3804 25.626C10.9345 25.1801 10.7116 24.6403 10.7116 24.0064H15.2885C15.2885 24.6403 15.0655 25.1801 14.6196 25.626C14.1738 26.0719 13.6339 26.2949 13 26.2949ZM6.78846 21.1731H19.2116V9.94871C19.2116 8.22692 18.6068 6.76121 17.3971 5.55159C16.1875 4.342 14.7218 3.7372 13 3.7372C11.2782 3.7372 9.81251 4.342 8.60289 5.55159C7.39327 6.76121 6.78846 8.22692 6.78846 9.94871V21.1731Z" fill="black"/>
</svg>
