<svg width="34" height="34" viewBox="0 0 34 34" fill="none" xmlns="http://www.w3.org/2000/svg">
<path d="M7.9552 29.75C7.30318 29.75 6.75876 29.5316 6.32196 29.0948C5.88515 28.658 5.66675 28.1136 5.66675 27.4616V9.37181C5.66675 8.71979 5.88515 8.17537 6.32196 7.73857C6.75876 7.30176 7.30318 7.08336 7.9552 7.08336H10.4616V3.9231H11.9872V7.08336H22.1219V3.9231H23.5386V7.08336H26.045C26.697 7.08336 27.2414 7.30176 27.6782 7.73857C28.115 8.17537 28.3334 8.71979 28.3334 9.37181V27.4616C28.3334 28.1136 28.115 28.658 27.6782 29.0948C27.2414 29.5316 26.697 29.75 26.045 29.75H7.9552ZM7.9552 28.3334H26.045C26.2629 28.3334 26.4627 28.2426 26.6443 28.0609C26.8259 27.8793 26.9167 27.6795 26.9167 27.4616V15.0385H7.08341V27.4616C7.08341 27.6795 7.17422 27.8793 7.35584 28.0609C7.53748 28.2426 7.73727 28.3334 7.9552 28.3334ZM7.08341 13.6218H26.9167V9.37181C26.9167 9.15388 26.8259 8.95409 26.6443 8.77245C26.4627 8.59084 26.2629 8.50003 26.045 8.50003H7.9552C7.73727 8.50003 7.53748 8.59084 7.35584 8.77245C7.17422 8.95409 7.08341 9.15388 7.08341 9.37181V13.6218ZM17.0001 20.0513C16.7077 20.0513 16.4529 19.9428 16.2359 19.7257C16.0189 19.5087 15.9103 19.254 15.9103 18.9616C15.9103 18.6692 16.0189 18.4144 16.2359 18.1974C16.4529 17.9803 16.7077 17.8718 17.0001 17.8718C17.2925 17.8718 17.5472 17.9803 17.7643 18.1974C17.9813 18.4144 18.0898 18.6692 18.0898 18.9616C18.0898 19.254 17.9813 19.5087 17.7643 19.7257C17.5472 19.9428 17.2925 20.0513 17.0001 20.0513ZM11.3334 20.0513C11.041 20.0513 10.7863 19.9428 10.5692 19.7257C10.3522 19.5087 10.2437 19.254 10.2437 18.9616C10.2437 18.6692 10.3522 18.4144 10.5692 18.1974C10.7863 17.9803 11.041 17.8718 11.3334 17.8718C11.6258 17.8718 11.8806 17.9803 12.0976 18.1974C12.3146 18.4144 12.4232 18.6692 12.4232 18.9616C12.4232 19.254 12.3146 19.5087 12.0976 19.7257C11.8806 19.9428 11.6258 20.0513 11.3334 20.0513ZM22.6667 20.0513C22.3743 20.0513 22.1196 19.9428 21.9026 19.7257C21.6855 19.5087 21.577 19.254 21.577 18.9616C21.577 18.6692 21.6855 18.4144 21.9026 18.1974C22.1196 17.9803 22.3743 17.8718 22.6667 17.8718C22.9592 17.8718 23.2139 17.9803 23.4309 18.1974C23.648 18.4144 23.7565 18.6692 23.7565 18.9616C23.7565 19.254 23.648 19.5087 23.4309 19.7257C23.2139 19.9428 22.9592 20.0513 22.6667 20.0513ZM17.0001 25.5C16.7077 25.5 16.4529 25.3915 16.2359 25.1745C16.0189 24.9574 15.9103 24.7027 15.9103 24.4103C15.9103 24.1179 16.0189 23.8631 16.2359 23.6461C16.4529 23.429 16.7077 23.3205 17.0001 23.3205C17.2925 23.3205 17.5472 23.429 17.7643 23.6461C17.9813 23.8631 18.0898 24.1179 18.0898 24.4103C18.0898 24.7027 17.9813 24.9574 17.7643 25.1745C17.5472 25.3915 17.2925 25.5 17.0001 25.5ZM11.3334 25.5C11.041 25.5 10.7863 25.3915 10.5692 25.1745C10.3522 24.9574 10.2437 24.7027 10.2437 24.4103C10.2437 24.1179 10.3522 23.8631 10.5692 23.6461C10.7863 23.429 11.041 23.3205 11.3334 23.3205C11.6258 23.3205 11.8806 23.429 12.0976 23.6461C12.3146 23.8631 12.4232 24.1179 12.4232 24.4103C12.4232 24.7027 12.3146 24.9574 12.0976 25.1745C11.8806 25.3915 11.6258 25.5 11.3334 25.5ZM22.6667 25.5C22.3743 25.5 22.1196 25.3915 21.9026 25.1745C21.6855 24.9574 21.577 24.7027 21.577 24.4103C21.577 24.1179 21.6855 23.8631 21.9026 23.6461C22.1196 23.429 22.3743 23.3205 22.6667 23.3205C22.9592 23.3205 23.2139 23.429 23.4309 23.6461C23.648 23.8631 23.7565 24.1179 23.7565 24.4103C23.7565 24.7027 23.648 24.9574 23.4309 25.1745C23.2139 25.3915 22.9592 25.5 22.6667 25.5Z" fill="#2B75E1"/>
</svg>
