<svg width="30" height="30" viewBox="0 0 30 30" fill="none" xmlns="http://www.w3.org/2000/svg">
<path d="M22.2547 25.6346L14.0672 17.4327C13.6025 17.6474 13.1283 17.8165 12.6448 17.9399C12.1612 18.0633 11.6482 18.125 11.1057 18.125C9.19598 18.125 7.57271 17.4566 6.2359 16.1198C4.89911 14.783 4.23071 13.1597 4.23071 11.25C4.23071 10.7083 4.29081 10.1871 4.41099 9.68628C4.53118 9.18549 4.70666 8.70513 4.93743 8.24519L9.35571 12.6154L12.4711 9.5L8.14896 5.12981C8.6089 4.89904 9.08201 4.71554 9.56831 4.57931C10.0546 4.4431 10.567 4.375 11.1057 4.375C13.0154 4.375 14.6387 5.04341 15.9755 6.38022C17.3123 7.71701 17.9807 9.34027 17.9807 11.25C17.9807 11.8253 17.923 12.3546 17.8076 12.8378C17.6922 13.3209 17.5192 13.7788 17.2884 14.2115L25.4903 22.399C25.6762 22.5905 25.7691 22.8219 25.7691 23.0931C25.7691 23.3644 25.678 23.5912 25.4956 23.7735L23.5811 25.688C23.3988 25.8704 23.1786 25.9535 22.9206 25.9375C22.6626 25.9215 22.4406 25.8205 22.2547 25.6346ZM22.9447 24.5408L24.3893 23.0962L15.7403 14.4471C16.0672 13.9984 16.314 13.498 16.4807 12.9459C16.6474 12.3938 16.7307 11.8285 16.7307 11.25C16.7307 9.72756 16.1414 8.36258 14.9627 7.15506C13.784 5.94752 12.2724 5.45833 10.4278 5.6875L13.5336 8.79328C13.7355 8.9952 13.8365 9.23077 13.8365 9.5C13.8365 9.76923 13.7355 10.0048 13.5336 10.2067L10.0624 13.6779C9.86052 13.8798 9.62494 13.9808 9.35571 13.9808C9.08648 13.9808 8.8509 13.8798 8.64896 13.6779L5.54321 10.5721C5.36213 12.593 5.88336 14.1486 7.1069 15.2392C8.33046 16.3297 9.6634 16.875 11.1057 16.875C11.658 16.875 12.2104 16.7957 12.7627 16.637C13.3151 16.4784 13.8261 16.23 14.2956 15.8918L22.9447 24.5408Z" fill="white"/>
</svg>
