<svg width="26" height="26" viewBox="0 0 26 26" fill="none" xmlns="http://www.w3.org/2000/svg">
<path d="M6.08349 20.5833H15.1668V15.1666H20.5835V6.08324C20.5835 5.8888 20.521 5.72908 20.396 5.60408C20.271 5.47908 20.1113 5.41659 19.9168 5.41659H6.08349C5.88905 5.41659 5.72933 5.47908 5.60433 5.60408C5.47933 5.72908 5.41683 5.8888 5.41683 6.08324V19.9166C5.41683 20.111 5.47933 20.2708 5.60433 20.3958C5.72933 20.5208 5.88905 20.5833 6.08349 20.5833ZM6.08349 21.6666C5.59877 21.6666 5.18592 21.4961 4.84494 21.1551C4.50398 20.8142 4.3335 20.4013 4.3335 19.9166V6.08324C4.3335 5.59852 4.50398 5.18567 4.84494 4.84469C5.18592 4.50373 5.59877 4.33325 6.08349 4.33325H19.9168C20.4016 4.33325 20.8144 4.50373 21.1554 4.84469C21.4963 5.18567 21.6668 5.59852 21.6668 6.08324V15.4791L15.4793 21.6666H6.08349ZM8.54181 14.5833V13.4999H13.0002V14.5833H8.54181ZM8.54181 10.2916V9.20825H17.4585V10.2916H8.54181Z" fill="#6B6B6B"/>
</svg>
