<svg width="30" height="30" viewBox="0 0 30 30" fill="none" xmlns="http://www.w3.org/2000/svg">
<path d="M7.01922 25C6.44391 25 5.96354 24.8073 5.57812 24.4218C5.19271 24.0364 5 23.5561 5 22.9807V7.01918C5 6.44387 5.19271 5.96351 5.57812 5.57809C5.96354 5.19267 6.44391 4.99997 7.01922 4.99997H17.5024L16.2524 6.24997H7.01922C6.82693 6.24997 6.65065 6.33009 6.49038 6.49034C6.33013 6.65061 6.25 6.82689 6.25 7.01918V22.9807C6.25 23.173 6.33013 23.3493 6.49038 23.5096C6.65065 23.6698 6.82693 23.75 7.01922 23.75H22.9808C23.1731 23.75 23.3494 23.6698 23.5096 23.5096C23.6699 23.3493 23.75 23.173 23.75 22.9807V13.6202L25 12.3702V22.9807C25 23.5561 24.8073 24.0364 24.4219 24.4218C24.0365 24.8073 23.5561 25 22.9808 25H7.01922ZM12.5 17.5V14.2307L23.6803 3.05043C23.8181 2.91262 23.9631 2.81727 24.1154 2.76437C24.2676 2.7115 24.4279 2.68506 24.5962 2.68506C24.7532 2.68506 24.9066 2.7115 25.0565 2.76437C25.2063 2.81727 25.3421 2.90461 25.4639 3.0264L26.8534 4.37497C26.9864 4.51278 27.0874 4.66462 27.1562 4.8305C27.2252 4.99635 27.2596 5.16341 27.2596 5.33168C27.2596 5.49995 27.2344 5.65902 27.1839 5.80887C27.1334 5.95871 27.0393 6.10254 26.9014 6.24037L15.649 17.5H12.5ZM13.75 16.25H15.1154L23.4471 7.91825L22.7644 7.23556L22.0024 6.50478L13.75 14.7572V16.25Z" fill="#2B75E1"/>
</svg>
