<svg width="26" height="26" viewBox="0 0 26 26" fill="none" xmlns="http://www.w3.org/2000/svg">
<path d="M3.97435 22C3.41182 22 2.94213 21.8018 2.56528 21.4054C2.18843 21.0089 2 20.5148 2 19.9231V6.07691C2 5.48516 2.18843 4.99107 2.56528 4.59464C2.94213 4.19821 3.41182 4 3.97435 4H22.0257C22.5882 4 23.0579 4.19821 23.4347 4.59464C23.8116 4.99107 24 5.48516 24 6.07691V19.9231C24 20.5148 23.8116 21.0089 23.4347 21.4054C23.0579 21.8018 22.5882 22 22.0257 22H3.97435ZM3.97435 20.7143H22.0257C22.2137 20.7143 22.386 20.6319 22.5427 20.467C22.6994 20.3022 22.7778 20.1209 22.7778 19.9231V7.85714H3.22222V19.9231C3.22222 20.1209 3.30057 20.3022 3.45726 20.467C3.61396 20.6319 3.78633 20.7143 3.97435 20.7143Z" fill="#6B6B6B"/>
<path d="M6 17H19.5318L15.3528 11.3333L11.4866 16.3061L8.89965 13.1259L6 17Z" fill="#6B6B6B"/>
</svg>
