<svg width="38" height="38" viewBox="0 0 38 38" fill="none" xmlns="http://www.w3.org/2000/svg">
<path d="M7.91675 32.0321V29.4257C7.91675 28.7375 8.10045 28.1225 8.46787 27.5805C8.83528 27.0385 9.35393 26.6 10.0238 26.2651C11.3087 25.6196 12.7348 25.0999 14.3019 24.7061C15.869 24.3123 17.435 24.1154 19.0001 24.1154C20.5652 24.1154 22.1312 24.3123 23.6983 24.7061C25.2655 25.0999 26.6915 25.6196 27.9764 26.2651C28.6463 26.6 29.1649 27.0385 29.5323 27.5805C29.8997 28.1225 30.0835 28.7375 30.0835 29.4257V32.0321H7.91675ZM9.50008 30.4487H28.5001V29.4257C28.5001 28.9933 28.3768 28.638 28.1301 28.36C27.8835 28.0819 27.5805 27.8464 27.2213 27.6536C26.2306 27.1379 24.9899 26.6832 23.4989 26.2894C22.0079 25.8956 20.5083 25.6987 19.0001 25.6987C17.4919 25.6987 15.9923 25.8956 14.5013 26.2894C13.0103 26.6832 11.7695 27.1379 10.7789 27.6536C10.4197 27.8464 10.1167 28.0819 9.87007 28.36C9.62341 28.638 9.50008 28.9933 9.50008 29.4257V30.4487ZM19.0001 20.5834C17.6441 20.5834 16.5135 20.1307 15.6081 19.2253C14.7028 18.32 14.2501 17.1284 14.2501 15.6507H13.9152C13.7385 15.6507 13.5929 15.5933 13.4782 15.4786C13.3635 15.3639 13.3062 15.2183 13.3062 15.0417C13.3062 14.8651 13.3635 14.7194 13.4782 14.6047C13.5929 14.4901 13.7385 14.4327 13.9152 14.4327H14.2501C14.2907 13.6309 14.4592 12.9021 14.7555 12.2465C15.0519 11.5908 15.533 10.9656 16.1988 10.3708V11.875C16.1988 12.0516 16.2562 12.1972 16.3708 12.312C16.4855 12.4266 16.6312 12.484 16.8078 12.484C16.9844 12.484 17.13 12.4266 17.2447 12.312C17.3594 12.1972 17.4167 12.0516 17.4167 11.875V9.79842C17.634 9.71925 17.8796 9.64972 18.1536 9.58981C18.4277 9.52994 18.7098 9.5 19.0001 9.5C19.2904 9.5 19.5725 9.52994 19.8466 9.58981C20.1206 9.64972 20.3662 9.71925 20.5834 9.79842V11.875C20.5834 12.0516 20.6408 12.1972 20.7555 12.312C20.8702 12.4266 21.0158 12.484 21.1924 12.484C21.369 12.484 21.5147 12.4266 21.6294 12.312C21.7441 12.1972 21.8014 12.0516 21.8014 11.875V10.3708C22.4875 10.9656 22.9737 11.5908 23.2599 12.2465C23.5461 12.9021 23.7095 13.6309 23.7501 14.4327H24.085C24.2617 14.4327 24.4073 14.4901 24.522 14.6047C24.6367 14.7194 24.694 14.8651 24.694 15.0417C24.694 15.2183 24.6367 15.3639 24.522 15.4786C24.4073 15.5933 24.2617 15.6507 24.085 15.6507H23.7501C23.7501 17.1284 23.2974 18.32 22.3921 19.2253C21.4867 20.1307 20.3561 20.5834 19.0001 20.5834ZM19.0001 19C19.9115 19 20.6672 18.7001 21.267 18.1003C21.8668 17.5004 22.1667 16.7448 22.1667 15.8333H15.8334C15.8334 16.7448 16.1333 17.5004 16.7332 18.1003C17.333 18.7001 18.0887 19 19.0001 19Z" fill="white"/>
</svg>
