<svg width="36" height="36" viewBox="0 0 36 36" fill="none" xmlns="http://www.w3.org/2000/svg">
<path d="M2.87306 30.2886V27.8193C2.87306 27.1674 3.0471 26.5847 3.39517 26.0713C3.74325 25.5578 4.2346 25.1424 4.86922 24.8251C6.08652 24.2135 7.43749 23.7212 8.92211 23.3482C10.4067 22.9751 11.8904 22.7885 13.3731 22.7885C14.8558 22.7885 16.3394 22.9751 17.8241 23.3482C19.3087 23.7212 20.6596 24.2135 21.8769 24.8251C22.5115 25.1424 23.0029 25.5578 23.351 26.0713C23.6991 26.5847 23.8731 27.1674 23.8731 27.8193V30.2886H2.87306ZM4.37306 28.7885H22.3731V27.8193C22.3731 27.4097 22.2562 27.0732 22.0226 26.8097C21.7889 26.5463 21.5019 26.3232 21.1616 26.1405C20.2231 25.652 19.0476 25.2212 17.6351 24.8482C16.2226 24.4751 14.8019 24.2885 13.3731 24.2885C11.9442 24.2885 10.5235 24.4751 9.11104 24.8482C7.69854 25.2212 6.52306 25.652 5.58461 26.1405C5.24424 26.3232 4.95722 26.5463 4.72357 26.8097C4.4899 27.0732 4.37306 27.4097 4.37306 27.8193V28.7885ZM13.3731 19.4424C12.0885 19.4424 11.0173 19.0136 10.1596 18.1559C9.30191 17.2982 8.87306 16.1693 8.87306 14.7693H8.55577C8.38845 14.7693 8.25046 14.715 8.14181 14.6063C8.03316 14.4977 7.97884 14.3597 7.97884 14.1924C7.97884 14.0251 8.03316 13.8871 8.14181 13.7785C8.25046 13.6698 8.38845 13.6155 8.55577 13.6155H8.87306C8.91154 12.8559 9.07115 12.1655 9.3519 11.5443C9.63268 10.9232 10.0885 10.3309 10.7192 9.76738V11.1924C10.7192 11.3597 10.7735 11.4977 10.8822 11.6063C10.9908 11.715 11.1288 11.7693 11.2962 11.7693C11.4635 11.7693 11.6014 11.715 11.7101 11.6063C11.8187 11.4977 11.8731 11.3597 11.8731 11.1924V9.22509C12.0788 9.15009 12.3115 9.08421 12.5712 9.02746C12.8308 8.97074 13.0981 8.94238 13.3731 8.94238C13.6481 8.94238 13.9154 8.97074 14.175 9.02746C14.4346 9.08421 14.6673 9.15009 14.8731 9.22509V11.1924C14.8731 11.3597 14.9274 11.4977 15.0361 11.6063C15.1447 11.715 15.2827 11.7693 15.45 11.7693C15.6173 11.7693 15.7553 11.715 15.864 11.6063C15.9726 11.4977 16.0269 11.3597 16.0269 11.1924V9.76738C16.6769 10.3309 17.1375 10.9232 17.4087 11.5443C17.6798 12.1655 17.8346 12.8559 17.8731 13.6155H18.1904C18.3577 13.6155 18.4957 13.6698 18.6044 13.7785C18.713 13.8871 18.7673 14.0251 18.7673 14.1924C18.7673 14.3597 18.713 14.4977 18.6044 14.6063C18.4957 14.715 18.3577 14.7693 18.1904 14.7693H17.8731C17.8731 16.1693 17.4443 17.2982 16.5866 18.1559C15.7289 19.0136 14.6577 19.4424 13.3731 19.4424ZM13.3731 17.9424C14.2365 17.9424 14.9524 17.6583 15.5207 17.09C16.0889 16.5217 16.3731 15.8059 16.3731 14.9424H10.3731C10.3731 15.8059 10.6572 16.5217 11.2255 17.09C11.7938 17.6583 12.5096 17.9424 13.3731 17.9424ZM24.6808 22.2693L24.5712 21.202C24.3827 21.152 24.1861 21.0717 23.9813 20.9612C23.7765 20.8506 23.6019 20.7232 23.4577 20.5789L22.4654 21.0116L21.8885 20.0078L22.7712 19.3732C22.7327 19.2597 22.7135 19.1559 22.7135 19.0616V18.453C22.7135 18.3684 22.7327 18.2597 22.7712 18.127L21.8885 17.4924L22.4654 16.4885L23.4577 16.9213C23.5962 16.7828 23.7692 16.6568 23.9769 16.5434C24.1846 16.4299 24.3827 16.3482 24.5712 16.2982L24.6808 15.2309H25.8346L25.9442 16.2982C26.1327 16.3482 26.3308 16.4299 26.5385 16.5434C26.7462 16.6568 26.9192 16.7828 27.0577 16.9213L28.05 16.4885L28.6269 17.4924L27.7442 18.127C27.7827 18.2597 27.8019 18.3684 27.8019 18.453V19.0616C27.8019 19.1559 27.7827 19.2597 27.7442 19.3732L28.6269 20.0078L28.05 21.0116L27.0577 20.5789C26.9135 20.7232 26.7389 20.8506 26.5341 20.9612C26.3293 21.0717 26.1327 21.152 25.9442 21.202L25.8346 22.2693H24.6808ZM25.2577 20.1059C25.6346 20.1059 25.9548 19.9741 26.2183 19.7107C26.4817 19.4472 26.6135 19.127 26.6135 18.7501C26.6135 18.3732 26.4817 18.053 26.2183 17.7895C25.9548 17.5261 25.6346 17.3943 25.2577 17.3943C24.8808 17.3943 24.5606 17.5261 24.2971 17.7895C24.0337 18.053 23.9019 18.3732 23.9019 18.7501C23.9019 19.127 24.0337 19.4472 24.2971 19.7107C24.5606 19.9741 24.8808 20.1059 25.2577 20.1059ZM28.3038 14.1347L28.1769 12.9635C27.8942 12.9078 27.5966 12.7948 27.2841 12.6246C26.9716 12.4544 26.7212 12.2462 26.5327 12.0001L25.4192 12.4674L24.7731 11.3597L25.7596 10.6385C25.7096 10.4943 25.675 10.3462 25.6558 10.1943C25.6366 10.0424 25.6269 9.89432 25.6269 9.75009C25.6269 9.60587 25.6366 9.45779 25.6558 9.30586C25.675 9.15394 25.7096 9.00586 25.7596 8.86164L24.7731 8.14048L25.4192 7.03277L26.5327 7.50009C26.7212 7.25394 26.9716 7.04577 27.2841 6.87557C27.5966 6.70537 27.8942 6.59239 28.1769 6.53664L28.3038 5.36548H29.5962L29.7231 6.53664C30.0058 6.59239 30.3034 6.70537 30.6159 6.87557C30.9284 7.04577 31.1789 7.25394 31.3673 7.50009L32.4808 7.03277L33.1269 8.14048L32.1404 8.86164C32.1904 9.00586 32.225 9.15394 32.2442 9.30586C32.2635 9.45779 32.2731 9.60587 32.2731 9.75009C32.2731 9.89432 32.2635 10.0424 32.2442 10.1943C32.225 10.3462 32.1904 10.4943 32.1404 10.6385L33.1269 11.3597L32.4808 12.4674L31.3673 12.0001C31.1789 12.2462 30.9284 12.4544 30.6159 12.6246C30.3034 12.7948 30.0058 12.9078 29.7231 12.9635L29.5962 14.1347H28.3038ZM28.95 11.7982C29.5327 11.7982 30.0197 11.6025 30.4111 11.2112C30.8024 10.8198 30.9981 10.3328 30.9981 9.75009C30.9981 9.16739 30.8024 8.68037 30.4111 8.28902C30.0197 7.89769 29.5327 7.70203 28.95 7.70203C28.3673 7.70203 27.8803 7.89769 27.489 8.28902C27.0976 8.68037 26.9019 9.16739 26.9019 9.75009C26.9019 10.3328 27.0976 10.8198 27.489 11.2112C27.8803 11.6025 28.3673 11.7982 28.95 11.7982Z" fill="#873FCF"/>
</svg>
