<svg width="30" height="30" viewBox="0 0 30 30" fill="none" xmlns="http://www.w3.org/2000/svg">
<path d="M5.76922 21.25C5.19391 21.25 4.71354 21.0573 4.32812 20.6719C3.94271 20.2865 3.75 19.8061 3.75 19.2308V10.7692C3.75 10.1939 3.94271 9.71354 4.32812 9.32812C4.71354 8.94271 5.19391 8.75 5.76922 8.75H24.2308C24.8061 8.75 25.2865 8.94271 25.6719 9.32812C26.0573 9.71354 26.25 10.1939 26.25 10.7692V19.2308C26.25 19.8061 26.0573 20.2865 25.6719 20.6719C25.2865 21.0573 24.8061 21.25 24.2308 21.25H5.76922ZM5.76922 20H24.2308C24.4231 20 24.5994 19.9199 24.7596 19.7596C24.9199 19.5994 25 19.4231 25 19.2308V10.7692C25 10.5769 24.9199 10.4006 24.7596 10.2404C24.5994 10.0801 24.4231 10 24.2308 10H20.625V14.0385H19.375V10H15.625V14.0385H14.375V10H10.625V14.0385H9.375V10H5.76922C5.57693 10 5.40065 10.0801 5.24038 10.2404C5.08013 10.4006 5 10.5769 5 10.7692V19.2308C5 19.4231 5.08013 19.5994 5.24038 19.7596C5.40065 19.9199 5.57693 20 5.76922 20Z" fill="white"/>
</svg>
