<svg width="34" height="34" viewBox="0 0 34 34" fill="none" xmlns="http://www.w3.org/2000/svg">
<path d="M7.08341 24.0832V26.9165V7.08317V24.0832ZM7.9552 28.3332C7.32133 28.3332 6.78145 28.1102 6.33556 27.6644C5.88968 27.2185 5.66675 26.6786 5.66675 26.0447V7.95495C5.66675 7.32109 5.88968 6.78121 6.33556 6.33531C6.78145 5.88944 7.32133 5.6665 7.9552 5.6665H26.045C26.6788 5.6665 27.2187 5.88944 27.6646 6.33531C28.1105 6.78121 28.3334 7.32109 28.3334 7.95495V12.1232H26.9167V7.95495C26.9167 7.70068 26.835 7.49182 26.6716 7.32836C26.5081 7.1649 26.2992 7.08317 26.045 7.08317H7.9552C7.70093 7.08317 7.49206 7.1649 7.3286 7.32836C7.16514 7.49182 7.08341 7.70068 7.08341 7.95495V26.0447C7.08341 26.299 7.16514 26.5079 7.3286 26.6713C7.49206 26.8348 7.70093 26.9165 7.9552 26.9165H26.045C26.2992 26.9165 26.5081 26.8348 26.6716 26.6713C26.835 26.5079 26.9167 26.299 26.9167 26.0447V21.8765H28.3334V26.0447C28.3334 26.6786 28.1105 27.2185 27.6646 27.6644C27.2187 28.1102 26.6788 28.3332 26.045 28.3332H7.9552ZM19.2885 22.6665C18.6547 22.6665 18.1148 22.4436 17.6689 21.9977C17.223 21.5518 17.0001 21.0119 17.0001 20.3781V13.6216C17.0001 12.9878 17.223 12.4479 17.6689 12.002C18.1148 11.5561 18.6547 11.3332 19.2885 11.3332H27.4616C28.0955 11.3332 28.6354 11.5561 29.0813 12.002C29.5271 12.4479 29.7501 12.9878 29.7501 13.6216V20.3781C29.7501 21.0119 29.5271 21.5518 29.0813 21.9977C28.6354 22.4436 28.0955 22.6665 27.4616 22.6665H19.2885ZM27.4616 21.2498C27.7159 21.2498 27.9248 21.1681 28.0882 21.0046C28.2517 20.8412 28.3334 20.6323 28.3334 20.3781V13.6216C28.3334 13.3674 28.2517 13.1585 28.0882 12.995C27.9248 12.8316 27.7159 12.7498 27.4616 12.7498H19.2885C19.0343 12.7498 18.8254 12.8316 18.6619 12.995C18.4985 13.1585 18.4167 13.3674 18.4167 13.6216V20.3781C18.4167 20.6323 18.4985 20.8412 18.6619 21.0046C18.8254 21.1681 19.0343 21.2498 19.2885 21.2498H27.4616ZM22.6667 19.1248C23.257 19.1248 23.7588 18.9182 24.172 18.505C24.5851 18.0919 24.7917 17.5901 24.7917 16.9998C24.7917 16.4096 24.5851 15.9078 24.172 15.4946C23.7588 15.0814 23.257 14.8748 22.6667 14.8748C22.0765 14.8748 21.5747 15.0814 21.1615 15.4946C20.7483 15.9078 20.5417 16.4096 20.5417 16.9998C20.5417 17.5901 20.7483 18.0919 21.1615 18.505C21.5747 18.9182 22.0765 19.1248 22.6667 19.1248Z" fill="#2B75E1"/>
</svg>
