<svg width="30" height="30" viewBox="0 0 30 30" fill="none" xmlns="http://www.w3.org/2000/svg">
<path d="M1.25 21.9711V20.8918C1.25 20.1241 1.66025 19.4871 2.48075 18.9807C3.30127 18.4743 4.35736 18.2211 5.64903 18.2211C5.83974 18.2211 6.04407 18.2303 6.26203 18.2487C6.47997 18.2672 6.71153 18.2972 6.95672 18.3389C6.76122 18.6802 6.61859 19.0304 6.52884 19.3894C6.43909 19.7483 6.39422 20.1081 6.39422 20.4687V21.9711H1.25ZM8.75 21.9711V20.5649C8.75 20.0611 8.89623 19.6006 9.18869 19.1834C9.48117 18.7662 9.91266 18.4054 10.4832 18.1009C11.0537 17.7964 11.7183 17.568 12.4772 17.4158C13.236 17.2636 14.0737 17.1874 14.9904 17.1874C15.9247 17.1874 16.7712 17.2636 17.5301 17.4158C18.2889 17.568 18.9535 17.7964 19.524 18.1009C20.0946 18.4054 20.5248 18.7662 20.8149 19.1834C21.105 19.6006 21.25 20.0611 21.25 20.5649V21.9711H8.75ZM23.6058 21.9711V20.4759C23.6058 20.0772 23.5621 19.7014 23.4748 19.3487C23.3874 18.996 23.2564 18.6594 23.0817 18.3389C23.3429 18.2972 23.5773 18.2672 23.7848 18.2487C23.9924 18.2303 24.1891 18.2211 24.375 18.2211C25.6667 18.2211 26.7188 18.4731 27.5312 18.9771C28.3438 19.4811 28.75 20.1193 28.75 20.8918V21.9711H23.6058ZM10.0361 20.7211H19.9712V20.4567C19.9231 19.8637 19.4371 19.379 18.5132 19.0024C17.5893 18.6257 16.4183 18.4374 15 18.4374C13.5817 18.4374 12.4107 18.6257 11.4868 19.0024C10.5629 19.379 10.0793 19.8637 10.0361 20.4567V20.7211ZM5.64266 17.0432C5.15172 17.0432 4.73357 16.869 4.38822 16.5207C4.04286 16.1723 3.87019 15.7535 3.87019 15.2644C3.87019 14.7804 4.04436 14.3669 4.39272 14.024C4.74107 13.681 5.15984 13.5095 5.64903 13.5095C6.13301 13.5095 6.55048 13.681 6.90144 14.024C7.2524 14.3669 7.42788 14.7828 7.42788 15.2715C7.42788 15.7459 7.25679 16.1598 6.91463 16.5132C6.57246 16.8665 6.14847 17.0432 5.64266 17.0432ZM24.375 17.0432C23.8958 17.0432 23.4796 16.8665 23.1262 16.5132C22.7728 16.1598 22.5962 15.7459 22.5962 15.2715C22.5962 14.7828 22.7728 14.3669 23.1262 14.024C23.4796 13.681 23.8974 13.5095 24.3797 13.5095C24.8766 13.5095 25.2965 13.681 25.6394 14.024C25.9824 14.3669 26.1538 14.7804 26.1538 15.2644C26.1538 15.7535 25.9834 16.1723 25.6424 16.5207C25.3015 16.869 24.879 17.0432 24.375 17.0432ZM15.0085 16.2499C14.2496 16.2499 13.6018 15.9835 13.0649 15.4507C12.528 14.9178 12.2596 14.2708 12.2596 13.5095C12.2596 12.7331 12.526 12.0823 13.0589 11.557C13.5917 11.0318 14.2388 10.7692 15 10.7692C15.7764 10.7692 16.4273 11.031 16.9525 11.5546C17.4778 12.0782 17.7404 12.727 17.7404 13.5011C17.7404 14.2599 17.4786 14.9078 16.955 15.4446C16.4313 15.9815 15.7825 16.2499 15.0085 16.2499ZM15.012 14.9999C15.4223 14.9999 15.7712 14.8521 16.0589 14.5564C16.3466 14.2607 16.4904 13.9078 16.4904 13.4975C16.4904 13.0873 16.3476 12.7383 16.0619 12.4507C15.7762 12.163 15.4223 12.0192 15 12.0192C14.5977 12.0192 14.2488 12.162 13.9531 12.4477C13.6575 12.7333 13.5096 13.0873 13.5096 13.5095C13.5096 13.9118 13.6575 14.2607 13.9531 14.5564C14.2488 14.8521 14.6018 14.9999 15.012 14.9999Z" fill="#2B75E1"/>
</svg>
