<svg width="26" height="26" viewBox="0 0 26 26" fill="none" xmlns="http://www.w3.org/2000/svg">
<path d="M19.7707 14.6249V11.3749H16.5207V10.2916H19.7707V7.0416H20.854V10.2916H24.104V11.3749H20.854V14.6249H19.7707ZM9.74984 12.3333C8.85609 12.3333 8.09098 12.0151 7.45452 11.3786C6.81807 10.7421 6.49984 9.97703 6.49984 9.08328C6.49984 8.18951 6.81807 7.4244 7.45452 6.78794C8.09098 6.15148 8.85609 5.83325 9.74984 5.83325C10.6436 5.83325 11.4087 6.15148 12.0451 6.78794C12.6816 7.4244 12.9998 8.18951 12.9998 9.08328C12.9998 9.97703 12.6816 10.7421 12.0451 11.3786C11.4087 12.0151 10.6436 12.3333 9.74984 12.3333ZM2.1665 20.1666V18.3833C2.1665 17.936 2.29671 17.5176 2.55713 17.1281C2.81754 16.7385 3.16789 16.436 3.60818 16.2208C4.63039 15.7305 5.6533 15.3628 6.67691 15.1176C7.70053 14.8725 8.72484 14.7499 9.74984 14.7499C10.7748 14.7499 11.7991 14.8725 12.8228 15.1176C13.8464 15.3628 14.8693 15.7305 15.8915 16.2208C16.3318 16.436 16.6821 16.7385 16.9425 17.1281C17.203 17.5176 17.3332 17.936 17.3332 18.3833V20.1666H2.1665ZM3.24984 19.0833H16.2498V18.3833C16.2498 18.143 16.1724 17.9173 16.0175 17.7062C15.8627 17.4951 15.6484 17.3166 15.3748 17.1708C14.4832 16.7388 13.5638 16.4079 12.6168 16.1781C11.6697 15.9482 10.7141 15.8333 9.74984 15.8333C8.78558 15.8333 7.82994 15.9482 6.8829 16.1781C5.93585 16.4079 5.0165 16.7388 4.12485 17.1708C3.85123 17.3166 3.63699 17.4951 3.48213 17.7062C3.32727 17.9173 3.24984 18.143 3.24984 18.3833V19.0833ZM9.74984 11.2499C10.3457 11.2499 10.8557 11.0378 11.28 10.6135C11.7044 10.1892 11.9165 9.67911 11.9165 9.08328C11.9165 8.48745 11.7044 7.97738 11.28 7.55307C10.8557 7.12877 10.3457 6.91661 9.74984 6.91661C9.154 6.91661 8.64393 7.12877 8.21963 7.55307C7.79532 7.97738 7.58317 8.48745 7.58317 9.08328C7.58317 9.67911 7.79532 10.1892 8.21963 10.6135C8.64393 11.0378 9.154 11.2499 9.74984 11.2499Z" fill="#6B6B6B"/>
</svg>
