<svg width="33" height="33" viewBox="0 0 33 33" fill="none" xmlns="http://www.w3.org/2000/svg">
<path d="M7.72114 27.5C7.0883 27.5 6.5599 27.288 6.13594 26.8641C5.71198 26.4401 5.5 25.9117 5.5 25.2789V7.72114C5.5 7.0883 5.71198 6.5599 6.13594 6.13594C6.5599 5.71198 7.0883 5.5 7.72114 5.5H25.2789C25.9117 5.5 26.4401 5.71198 26.8641 6.13594C27.288 6.5599 27.5 7.0883 27.5 7.72114V25.2789C27.5 25.9117 27.288 26.4401 26.8641 26.8641C26.4401 27.288 25.9117 27.5 25.2789 27.5H7.72114ZM7.72114 26.125H25.2789C25.4904 26.125 25.6843 26.0369 25.8606 25.8606C26.0369 25.6843 26.125 25.4904 26.125 25.2789V7.72114C26.125 7.50962 26.0369 7.31571 25.8606 7.13941C25.6843 6.96314 25.4904 6.875 25.2789 6.875H7.72114C7.50962 6.875 7.31571 6.96314 7.13941 7.13941C6.96314 7.31571 6.875 7.50962 6.875 7.72114V25.2789C6.875 25.4904 6.96314 25.6843 7.13941 25.8606C7.31571 26.0369 7.50962 26.125 7.72114 26.125ZM10.3125 22.6875H22.899L19.012 17.5048L15.4159 22.0529L13.0096 19.1442L10.3125 22.6875Z" fill="#0057FF"/>
</svg>
