<svg width="26" height="26" viewBox="0 0 26 26" fill="none" xmlns="http://www.w3.org/2000/svg">
<path d="M16.7918 20.8145L12.9377 16.9604L13.7043 16.1937L16.7918 19.2812L22.9543 13.1187L23.721 13.8853L16.7918 20.8145ZM21.6668 10.8333H20.5835V6.08325C20.5835 5.9166 20.5141 5.76382 20.3752 5.62492C20.2363 5.48604 20.0835 5.4166 19.9168 5.4166H17.3335V7.83327H8.66683V5.4166H6.08349C5.91683 5.4166 5.76406 5.48604 5.62515 5.62492C5.48627 5.76382 5.41683 5.9166 5.41683 6.08325V19.9166C5.41683 20.0833 5.48627 20.236 5.62515 20.3749C5.76406 20.5138 5.91683 20.5833 6.08349 20.5833H11.9168V21.6666H6.08349C5.59877 21.6666 5.18592 21.4961 4.84494 21.1552C4.50398 20.8142 4.3335 20.4013 4.3335 19.9166V6.08325C4.3335 5.59853 4.50398 5.18568 4.84494 4.8447C5.18592 4.50374 5.59877 4.33326 6.08349 4.33326H11.1064C11.2078 3.90964 11.4328 3.55374 11.7814 3.26556C12.13 2.97735 12.5363 2.83325 13.0002 2.83325C13.4724 2.83325 13.8818 2.97735 14.2283 3.26556C14.5748 3.55374 14.7988 3.90964 14.9002 4.33326H19.9168C20.4016 4.33326 20.8144 4.50374 21.1554 4.8447C21.4964 5.18568 21.6668 5.59853 21.6668 6.08325V10.8333ZM13.0002 5.6666C13.2516 5.6666 13.4602 5.58361 13.6262 5.41763C13.7922 5.25166 13.8752 5.04298 13.8752 4.79159C13.8752 4.54021 13.7922 4.33153 13.6262 4.16556C13.4602 3.99958 13.2516 3.91659 13.0002 3.91659C12.7488 3.91659 12.5401 3.99958 12.3741 4.16556C12.2081 4.33153 12.1252 4.54021 12.1252 4.79159C12.1252 5.04298 12.2081 5.25166 12.3741 5.41763C12.5401 5.58361 12.7488 5.6666 13.0002 5.6666Z" fill="#6B6B6B"/>
</svg>
