<svg width="26" height="26" viewBox="0 0 26 26" fill="none" xmlns="http://www.w3.org/2000/svg">
<path d="M6.08349 21.6666C5.58488 21.6666 5.16857 21.4996 4.83454 21.1655C4.50051 20.8315 4.3335 20.4152 4.3335 19.9166V6.08324C4.3335 5.58464 4.50051 5.16832 4.83454 4.83429C5.16857 4.50027 5.58488 4.33325 6.08349 4.33325H13.021V5.41659H6.08349C5.91683 5.41659 5.76406 5.48603 5.62515 5.62491C5.48627 5.76381 5.41683 5.91659 5.41683 6.08324V19.9166C5.41683 20.0832 5.48627 20.236 5.62515 20.3749C5.76406 20.5138 5.91683 20.5833 6.08349 20.5833H13.021V21.6666H6.08349ZM17.8335 16.8333L17.0731 16.0541L19.5856 13.5416H9.95849V12.4583H19.5856L17.0731 9.94576L17.8335 9.16657L21.6668 12.9999L17.8335 16.8333Z" fill="#6B6B6B"/>
</svg>
