<svg width="30" height="30" viewBox="0 0 30 30" fill="none" xmlns="http://www.w3.org/2000/svg">
<path d="M3.41357 25.1924V3.94238H14.6636V8.94238H26.5866V25.1924H3.41357ZM4.66357 23.9424H8.41357V20.1924H4.66357V23.9424ZM4.66357 18.9424H8.41357V15.1924H4.66357V18.9424ZM4.66357 13.9424H8.41357V10.1924H4.66357V13.9424ZM4.66357 8.94238H8.41357V5.19238H4.66357V8.94238ZM9.66357 23.9424H13.4136V20.1924H9.66357V23.9424ZM9.66357 18.9424H13.4136V15.1924H9.66357V18.9424ZM9.66357 13.9424H13.4136V10.1924H9.66357V13.9424ZM9.66357 8.94238H13.4136V5.19238H9.66357V8.94238ZM14.6636 23.9424H25.3366V10.1924H14.6636V13.9424H17.6443V15.1924H14.6636V18.9424H17.6443V20.1924H14.6636V23.9424ZM20.6251 15.1924V13.9424H21.8751V15.1924H20.6251ZM20.6251 20.1924V18.9424H21.8751V20.1924H20.6251Z" fill="white"/>
</svg>
