<svg width="26" height="26" viewBox="0 0 26 26" fill="none" xmlns="http://www.w3.org/2000/svg">
<path d="M9.20817 18.9583H16.7915V17.875H9.20817V18.9583ZM9.20817 14.625H16.7915V13.5417H9.20817V14.625ZM7.16649 22.75C6.66789 22.75 6.25157 22.583 5.91755 22.249C5.58352 21.9149 5.4165 21.4986 5.4165 21V4.99999C5.4165 4.50139 5.58352 4.08507 5.91755 3.75104C6.25157 3.41701 6.66789 3.25 7.16649 3.25H15.7082L20.5832 8.125V21C20.5832 21.4986 20.4162 21.9149 20.0821 22.249C19.7481 22.583 19.3318 22.75 18.8332 22.75H7.16649ZM15.1665 8.66667V4.33333H7.16649C6.99984 4.33333 6.84706 4.40278 6.70816 4.54166C6.56928 4.68056 6.49984 4.83334 6.49984 4.99999V21C6.49984 21.1667 6.56928 21.3194 6.70816 21.4583C6.84706 21.5972 6.99984 21.6667 7.16649 21.6667H18.8332C18.9998 21.6667 19.1526 21.5972 19.2915 21.4583C19.4304 21.3194 19.4998 21.1667 19.4998 21V8.66667H15.1665Z" fill="#6B6B6B"/>
</svg>
