<svg width="20" height="20" viewBox="0 0 20 20" fill="none" xmlns="http://www.w3.org/2000/svg">
<path d="M9.16667 15C10.7778 15 12.1528 14.4314 13.2917 13.2941C14.4306 12.1568 15 10.781 15 9.16667C15 7.55556 14.4306 6.18056 13.2917 5.04167C12.1528 3.90278 10.7778 3.33333 9.16667 3.33333C7.55235 3.33333 6.17655 3.90278 5.03927 5.04167C3.90198 6.18056 3.33333 7.55556 3.33333 9.16667C3.33333 10.781 3.90198 12.1568 5.03927 13.2941C6.17655 14.4314 7.55235 15 9.16667 15ZM9.16667 15.8333C8.24251 15.8333 7.37633 15.6595 6.5681 15.3117C5.75988 14.9639 5.05369 14.488 4.44952 13.8838C3.84535 13.2796 3.36939 12.5735 3.02162 11.7652C2.67387 10.957 2.5 10.0908 2.5 9.16667C2.5 8.24572 2.67387 7.38114 3.02162 6.57292C3.36939 5.76469 3.84535 5.05769 4.44952 4.45192C5.05369 3.84615 5.75988 3.36939 6.5681 3.02163C7.37633 2.67388 8.24251 2.5 9.16667 2.5C10.0876 2.5 10.9522 2.67388 11.7604 3.02163C12.5686 3.36939 13.2756 3.84615 13.8814 4.45192C14.4872 5.05769 14.9639 5.76469 15.3117 6.57292C15.6595 7.38114 15.8333 8.24572 15.8333 9.16667C15.8333 10.0128 15.6848 10.8104 15.3878 11.5593C15.0908 12.3082 14.68 12.9824 14.1555 13.5817L17.5 16.9263L16.9215 17.5L13.5769 14.1603C12.9776 14.6848 12.3034 15.0948 11.5545 15.3902C10.8055 15.6856 10.0096 15.8333 9.16667 15.8333Z" fill="#888888"/>
</svg>
