<svg width="28" height="28" viewBox="0 0 28 28" fill="none" xmlns="http://www.w3.org/2000/svg">
<path d="M11.8239 24.5L11.4021 21.1257C11.0296 21.0135 10.6269 20.837 10.1939 20.5962C9.7609 20.3553 9.39258 20.0973 9.08893 19.8221L5.97708 21.1458L3.80078 17.3542L6.49085 15.3259C6.45645 15.1151 6.42804 14.8978 6.4056 14.6742C6.38316 14.4506 6.37194 14.2333 6.37194 14.0224C6.37194 13.8265 6.38316 13.6205 6.4056 13.4043C6.42804 13.1882 6.45645 12.9448 6.49085 12.6741L3.80078 10.6458L5.97708 6.89903L9.0665 8.20033C9.415 7.91016 9.79193 7.6484 10.1973 7.41507C10.6026 7.18174 10.9967 7.0015 11.3797 6.87435L11.8239 3.5H16.1765L16.5982 6.89678C17.0455 7.05383 17.4407 7.23407 17.784 7.4375C18.1273 7.64091 18.4806 7.89518 18.8441 8.20033L22.0232 6.89903L24.1995 10.6458L21.4197 12.7413C21.484 12.9822 21.5199 13.2032 21.5274 13.4043C21.5349 13.6055 21.5386 13.8041 21.5386 14C21.5386 14.181 21.5312 14.3721 21.5162 14.5732C21.5012 14.7744 21.4668 15.0178 21.413 15.3035L24.1479 17.3542L21.9716 21.1458L18.8441 19.7997C18.4806 20.1048 18.1149 20.3666 17.747 20.5849C17.379 20.8033 16.9961 20.9761 16.5982 21.1032L16.1765 24.5H11.8239ZM12.8335 23.3333H15.1152L15.546 20.1744C16.1338 20.0188 16.6629 19.8053 17.1333 19.5338C17.6037 19.2623 18.0827 18.8903 18.5703 18.4176L21.4803 19.6583L22.6402 17.675L20.087 15.7567C20.1842 15.4247 20.2486 15.1192 20.28 14.8402C20.3114 14.5613 20.3271 14.2812 20.3271 14C20.3271 13.7038 20.3114 13.4238 20.28 13.1598C20.2486 12.8958 20.1842 12.6052 20.087 12.2881L22.6851 10.325L21.5252 8.34167L18.5479 9.5891C18.1949 9.2017 17.7309 8.83862 17.1558 8.49984C16.5807 8.16106 16.0366 7.93633 15.5236 7.82565L15.1668 4.66667H12.8402L12.4768 7.80319C11.8889 7.92884 11.3486 8.13114 10.8558 8.41009C10.3629 8.68904 9.8727 9.07232 9.38509 9.55993L6.47516 8.34167L5.31523 10.325L7.84599 12.2141C7.74877 12.4759 7.68072 12.76 7.64183 13.0667C7.60294 13.3733 7.58349 13.6919 7.58349 14.0224C7.58349 14.3186 7.60294 14.6125 7.64183 14.9042C7.68072 15.1958 7.74129 15.48 7.82356 15.7567L5.31523 17.675L6.47516 19.6583L9.36266 18.4333C9.82034 18.8955 10.2956 19.2661 10.7885 19.545C11.2813 19.824 11.8366 20.0413 12.4543 20.1968L12.8335 23.3333ZM13.9687 16.9167C14.7824 16.9167 15.4719 16.634 16.0373 16.0686C16.6027 15.5032 16.8854 14.8137 16.8854 14C16.8854 13.1863 16.6027 12.4968 16.0373 11.9314C15.4719 11.366 14.7824 11.0833 13.9687 11.0833C13.1506 11.0833 12.4599 11.366 11.8968 11.9314C11.3336 12.4968 11.0521 13.1863 11.0521 14C11.0521 14.8137 11.3336 15.5032 11.8968 16.0686C12.4599 16.634 13.1506 16.9167 13.9687 16.9167Z" fill="black"/>
</svg>
