<svg width="28" height="28" viewBox="0 0 28 28" fill="none" xmlns="http://www.w3.org/2000/svg">
<path d="M11.8237 24.5L11.402 21.1257C11.0295 21.0135 10.6268 20.837 10.1938 20.5962C9.76078 20.3553 9.39245 20.0973 9.08881 19.8221L5.97696 21.1458L3.80066 17.3542L6.49073 15.3259C6.45633 15.1151 6.42791 14.8978 6.40548 14.6742C6.38304 14.4506 6.37182 14.2333 6.37182 14.0224C6.37182 13.8265 6.38304 13.6205 6.40548 13.4043C6.42791 13.1882 6.45633 12.9448 6.49073 12.6741L3.80066 10.6458L5.97696 6.89903L9.06638 8.20033C9.41488 7.91016 9.7918 7.6484 10.1971 7.41507C10.6025 7.18174 10.9966 7.0015 11.3795 6.87435L11.8237 3.5H16.1763L16.5981 6.89678C17.0453 7.05383 17.4406 7.23407 17.7839 7.4375C18.1271 7.64091 18.4805 7.89518 18.844 8.20033L22.0231 6.89903L24.1994 10.6458L21.4196 12.7413C21.4839 12.9822 21.5198 13.2032 21.5273 13.4043C21.5348 13.6055 21.5385 13.8041 21.5385 14C21.5385 14.181 21.531 14.3721 21.5161 14.5732C21.5011 14.7744 21.4667 15.0178 21.4129 15.3035L24.1478 17.3542L21.9715 21.1458L18.844 19.7997C18.4805 20.1048 18.1148 20.3666 17.7468 20.5849C17.3789 20.8033 16.996 20.9761 16.5981 21.1032L16.1763 24.5H11.8237ZM12.8334 23.3333H15.1151L15.5459 20.1744C16.1337 20.0188 16.6628 19.8053 17.1332 19.5338C17.6036 19.2623 18.0826 18.8903 18.5702 18.4176L21.4802 19.6583L22.6401 17.675L20.0869 15.7567C20.1841 15.4247 20.2484 15.1192 20.2799 14.8402C20.3113 14.5613 20.327 14.2812 20.327 14C20.327 13.7038 20.3113 13.4238 20.2799 13.1598C20.2484 12.8958 20.1841 12.6052 20.0869 12.2881L22.685 10.325L21.525 8.34167L18.5478 9.5891C18.1948 9.2017 17.7307 8.83862 17.1556 8.49984C16.5805 8.16106 16.0365 7.93633 15.5234 7.82565L15.1667 4.66667H12.8401L12.4766 7.80319C11.8888 7.92884 11.3485 8.13114 10.8556 8.41009C10.3628 8.68904 9.87258 9.07232 9.38497 9.55993L6.47504 8.34167L5.31511 10.325L7.84587 12.2141C7.74865 12.4759 7.68059 12.76 7.6417 13.0667C7.60282 13.3733 7.58337 13.6919 7.58337 14.0224C7.58337 14.3186 7.60282 14.6125 7.6417 14.9042C7.68059 15.1958 7.74117 15.48 7.82344 15.7567L5.31511 17.675L6.47504 19.6583L9.36254 18.4333C9.82022 18.8955 10.2955 19.2661 10.7884 19.545C11.2812 19.824 11.8365 20.0413 12.4542 20.1968L12.8334 23.3333ZM13.9686 16.9167C14.7823 16.9167 15.4718 16.634 16.0372 16.0686C16.6026 15.5032 16.8853 14.8137 16.8853 14C16.8853 13.1863 16.6026 12.4968 16.0372 11.9314C15.4718 11.366 14.7823 11.0833 13.9686 11.0833C13.1505 11.0833 12.4598 11.366 11.8967 11.9314C11.3335 12.4968 11.052 13.1863 11.052 14C11.052 14.8137 11.3335 15.5032 11.8967 16.0686C12.4598 16.634 13.1505 16.9167 13.9686 16.9167Z" fill="black"/>
</svg>
