<svg width="26" height="26" viewBox="0 0 26 26" fill="none" xmlns="http://www.w3.org/2000/svg">
<path d="M10.9793 22.75L10.5876 19.6167C10.2418 19.5125 9.86785 19.3486 9.46577 19.125C9.06369 18.9014 8.72168 18.6618 8.43972 18.4063L5.55015 19.6354L3.5293 16.1146L6.02722 14.2312C5.99528 14.0354 5.96889 13.8337 5.94806 13.626C5.92722 13.4184 5.9168 13.2167 5.9168 13.0208C5.9168 12.8389 5.92722 12.6476 5.94806 12.4469C5.96889 12.2462 5.99528 12.0202 6.02722 11.7688L3.5293 9.88542L5.55015 6.40624L8.41889 7.61459C8.7425 7.34514 9.0925 7.10209 9.46889 6.88542C9.84527 6.66876 10.2113 6.50139 10.5668 6.38333L10.9793 3.25H15.021L15.4127 6.40415C15.8279 6.54999 16.1949 6.71735 16.5137 6.90625C16.8324 7.09513 17.1606 7.33124 17.4981 7.61459L20.4502 6.40624L22.471 9.88542L19.8897 11.8312C19.9495 12.0549 19.9828 12.2601 19.9897 12.4469C19.9967 12.6337 20.0002 12.8181 20.0002 13C20.0002 13.1681 19.9932 13.3455 19.9793 13.5323C19.9654 13.7191 19.9335 13.9451 19.8835 14.2104L22.4231 16.1146L20.4022 19.6354L17.4981 18.3854C17.1606 18.6688 16.821 18.9118 16.4793 19.1146C16.1377 19.3174 15.7821 19.4778 15.4127 19.5958L15.021 22.75H10.9793ZM11.9168 21.6667H14.0356L14.4356 18.7333C14.9814 18.5889 15.4727 18.3906 15.9095 18.1385C16.3463 17.8865 16.7911 17.541 17.2439 17.1021L19.946 18.2542L21.0231 16.4125L18.6522 14.6313C18.7425 14.3229 18.8022 14.0392 18.8314 13.7802C18.8606 13.5212 18.8751 13.2611 18.8751 13C18.8751 12.725 18.8606 12.4649 18.8314 12.2198C18.8022 11.9746 18.7425 11.7049 18.6522 11.4104L21.0647 9.5875L19.9876 7.74583L17.2231 8.90416C16.8953 8.54444 16.4644 8.20729 15.9303 7.89271C15.3963 7.57812 14.8911 7.36945 14.4147 7.26667L14.0835 4.33333H11.9231L11.5856 7.24582C11.0397 7.3625 10.538 7.55035 10.0803 7.80937C9.62271 8.0684 9.16751 8.4243 8.71473 8.87708L6.01265 7.74583L4.93557 9.5875L7.28557 11.3417C7.19529 11.5847 7.13209 11.8486 7.09598 12.1333C7.05987 12.4181 7.04182 12.7139 7.04182 13.0208C7.04182 13.2958 7.05987 13.5688 7.09598 13.8396C7.13209 14.1104 7.18834 14.3743 7.26474 14.6313L4.93557 16.4125L6.01265 18.2542L8.6939 17.1167C9.11889 17.5458 9.56021 17.8899 10.0179 18.1489C10.4755 18.408 10.9911 18.6097 11.5647 18.7542L11.9168 21.6667ZM12.971 15.7083C13.7265 15.7083 14.3668 15.4458 14.8918 14.9208C15.4168 14.3958 15.6793 13.7556 15.6793 13C15.6793 12.2444 15.4168 11.6042 14.8918 11.0792C14.3668 10.5542 13.7265 10.2917 12.971 10.2917C12.2113 10.2917 11.5699 10.5542 11.047 11.0792C10.5241 11.6042 10.2626 12.2444 10.2626 13C10.2626 13.7556 10.5241 14.3958 11.047 14.9208C11.5699 15.4458 12.2113 15.7083 12.971 15.7083Z" fill="#6B6B6B"/>
</svg>
