<svg width="36" height="36" viewBox="0 0 36 36" fill="none" xmlns="http://www.w3.org/2000/svg">
<path d="M8.42306 28.5H21V21H28.5V8.42306C28.5 8.15384 28.4135 7.93269 28.2404 7.75961C28.0673 7.58654 27.8462 7.5 27.5769 7.5H8.42306C8.15384 7.5 7.93269 7.58654 7.75961 7.75961C7.58654 7.93269 7.5 8.15384 7.5 8.42306V27.5769C7.5 27.8462 7.58654 28.0673 7.75961 28.2404C7.93269 28.4135 8.15384 28.5 8.42306 28.5ZM8.42306 30C7.75191 30 7.18028 29.764 6.70815 29.2918C6.23605 28.8197 6 28.2481 6 27.5769V8.42306C6 7.75191 6.23605 7.18027 6.70815 6.70815C7.18028 6.23605 7.75191 6 8.42306 6H27.5769C28.2481 6 28.8197 6.23605 29.2919 6.70815C29.764 7.18027 30 7.75191 30 8.42306V21.4327L21.4327 30H8.42306ZM11.8269 20.1923V18.6923H18V20.1923H11.8269ZM11.8269 14.25V12.75H24.1731V14.25H11.8269Z" fill="#118F5A"/>
</svg>
