<svg width="30" height="30" viewBox="0 0 30 30" fill="none" xmlns="http://www.w3.org/2000/svg">
<path d="M13.6875 21.0817L19.8846 14.8846L18.9856 13.9856L13.6803 19.2909L11.0072 16.6178L10.1154 17.5096L13.6875 21.0817ZM8.26922 26.25C7.69391 26.25 7.21354 26.0573 6.82812 25.6719C6.44271 25.2865 6.25 24.8061 6.25 24.2308V5.76922C6.25 5.19391 6.44271 4.71354 6.82812 4.32812C7.21354 3.94271 7.69391 3.75 8.26922 3.75H18.125L23.75 9.375V24.2308C23.75 24.8061 23.5573 25.2865 23.1719 25.6719C22.7865 26.0573 22.3061 26.25 21.7308 26.25H8.26922ZM17.5 10V5H8.26922C8.07693 5 7.90065 5.08013 7.74038 5.24038C7.58013 5.40065 7.5 5.57693 7.5 5.76922V24.2308C7.5 24.4231 7.58013 24.5994 7.74038 24.7596C7.90065 24.9199 8.07693 25 8.26922 25H21.7308C21.9231 25 22.0994 24.9199 22.2596 24.7596C22.4199 24.5994 22.5 24.4231 22.5 24.2308V10H17.5Z" fill="#2B75E1"/>
</svg>
