<svg width="26" height="26" viewBox="0 0 26 26" fill="none" xmlns="http://www.w3.org/2000/svg">
<path d="M5.41671 18.4163V20.583V5.41634V18.4163ZM6.08336 21.6663C5.59864 21.6663 5.18579 21.4959 4.84482 21.1549C4.50385 20.8139 4.33337 20.4011 4.33337 19.9164V6.083C4.33337 5.59828 4.50385 5.18543 4.84482 4.84445C5.18579 4.50349 5.59864 4.33301 6.08336 4.33301H19.9167C20.4014 4.33301 20.8143 4.50349 21.1553 4.84445C21.4962 5.18543 21.6667 5.59828 21.6667 6.083V9.27049H20.5834V6.083C20.5834 5.88856 20.5209 5.72884 20.3959 5.60384C20.2709 5.47884 20.1112 5.41634 19.9167 5.41634H6.08336C5.88892 5.41634 5.7292 5.47884 5.60421 5.60384C5.47921 5.72884 5.41671 5.88856 5.41671 6.083V19.9164C5.41671 20.1108 5.47921 20.2705 5.60421 20.3955C5.7292 20.5205 5.88892 20.583 6.08336 20.583H19.9167C20.1112 20.583 20.2709 20.5205 20.3959 20.3955C20.5209 20.2705 20.5834 20.1108 20.5834 19.9164V16.7289H21.6667V19.9164C21.6667 20.4011 21.4962 20.8139 21.1553 21.1549C20.8143 21.4959 20.4014 21.6663 19.9167 21.6663H6.08336ZM14.75 17.333C14.2653 17.333 13.8525 17.1625 13.5115 16.8216C13.1705 16.4806 13 16.0677 13 15.583V10.4163C13 9.93161 13.1705 9.51876 13.5115 9.17778C13.8525 8.83682 14.2653 8.66634 14.75 8.66634H21C21.4848 8.66634 21.8976 8.83682 22.2386 9.17778C22.5796 9.51876 22.75 9.93161 22.75 10.4163V15.583C22.75 16.0677 22.5796 16.4806 22.2386 16.8216C21.8976 17.1625 21.4848 17.333 21 17.333H14.75ZM21 16.2497C21.1945 16.2497 21.3542 16.1872 21.4792 16.0622C21.6042 15.9372 21.6667 15.7775 21.6667 15.583V10.4163C21.6667 10.2219 21.6042 10.0622 21.4792 9.93717C21.3542 9.81217 21.1945 9.74967 21 9.74967H14.75C14.5556 9.74967 14.3959 9.81217 14.2709 9.93717C14.1459 10.0622 14.0834 10.2219 14.0834 10.4163V15.583C14.0834 15.7775 14.1459 15.9372 14.2709 16.0622C14.3959 16.1872 14.5556 16.2497 14.75 16.2497H21ZM17.3334 14.6247C17.7848 14.6247 18.1684 14.4667 18.4844 14.1507C18.8004 13.8347 18.9584 13.4511 18.9584 12.9997C18.9584 12.5483 18.8004 12.1646 18.4844 11.8486C18.1684 11.5327 17.7848 11.3747 17.3334 11.3747C16.882 11.3747 16.4983 11.5327 16.1823 11.8486C15.8664 12.1646 15.7084 12.5483 15.7084 12.9997C15.7084 13.4511 15.8664 13.8347 16.1823 14.1507C16.4983 14.4667 16.882 14.6247 17.3334 14.6247Z" fill="#6B6B6B"/>
</svg>
