<svg width="26" height="26" viewBox="0 0 26 26" fill="none" xmlns="http://www.w3.org/2000/svg">
<path d="M21.3147 22.0312L21.9064 21.4395L19.9168 19.4499V16.4999H19.0835V19.7999L21.3147 22.0312ZM6.08349 21.6666C5.59877 21.6666 5.18592 21.4961 4.84494 21.1551C4.50398 20.8142 4.3335 20.4013 4.3335 19.9166V6.08324C4.3335 5.59852 4.50398 5.18567 4.84494 4.84469C5.18592 4.50373 5.59877 4.33325 6.08349 4.33325H19.9168C20.4016 4.33325 20.8144 4.50373 21.1554 4.84469C21.4963 5.18567 21.6668 5.59852 21.6668 6.08324V12.5291C21.4766 12.4638 21.2946 12.4107 21.121 12.3697C20.9474 12.3287 20.7682 12.2881 20.5835 12.2478V6.08324C20.5835 5.91659 20.5141 5.76381 20.3752 5.62491C20.2363 5.48603 20.0835 5.41659 19.9168 5.41659H6.08349C5.91683 5.41659 5.76406 5.48603 5.62515 5.62491C5.48627 5.76381 5.41683 5.91659 5.41683 6.08324V19.9166C5.41683 20.0833 5.48627 20.236 5.62515 20.3749C5.76406 20.5138 5.91683 20.5833 6.08349 20.5833H12.221C12.2474 20.786 12.2811 20.9742 12.3221 21.1478C12.363 21.3215 12.4161 21.4944 12.4814 21.6666H6.08349ZM5.41683 19.4999V20.5833V5.41659V12.2478V12.1666V19.4999ZM8.12516 17.6249H12.4148C12.455 17.4402 12.5095 17.261 12.5783 17.0874C12.647 16.9138 12.7189 16.7319 12.7939 16.5416H8.12516V17.6249ZM8.12516 13.5416H15.2543C15.6099 13.2916 15.9602 13.0798 16.3054 12.9062C16.6505 12.7326 17.021 12.5964 17.4168 12.4978V12.4583H8.12516V13.5416ZM8.12516 9.45826H17.8752V8.37493H8.12516V9.45826ZM19.5002 23.9583C18.2932 23.9583 17.2693 23.5378 16.4283 22.6968C15.5873 21.8558 15.1668 20.8319 15.1668 19.6249C15.1668 18.418 15.5873 17.394 16.4283 16.553C17.2693 15.7121 18.2932 15.2916 19.5002 15.2916C20.7071 15.2916 21.7311 15.7121 22.572 16.553C23.413 17.394 23.8335 18.418 23.8335 19.6249C23.8335 20.8319 23.413 21.8558 22.572 22.6968C21.7311 23.5378 20.7071 23.9583 19.5002 23.9583Z" fill="#6B6B6B"/>
</svg>
