<svg width="36" height="36" viewBox="0 0 36 36" fill="none" xmlns="http://www.w3.org/2000/svg">
<path d="M27.375 20.2498V15.7498H22.875V14.2498H27.375V9.74976H28.875V14.2498H33.375V15.7498H28.875V20.2498H27.375ZM13.5 17.0767C12.2625 17.0767 11.2031 16.6361 10.3219 15.7548C9.44063 14.8736 9 13.8142 9 12.5767C9 11.3392 9.44063 10.2798 10.3219 9.39854C11.2031 8.51729 12.2625 8.07666 13.5 8.07666C14.7375 8.07666 15.7969 8.51729 16.6781 9.39854C17.5594 10.2798 18 11.3392 18 12.5767C18 13.8142 17.5594 14.8736 16.6781 15.7548C15.7969 16.6361 14.7375 17.0767 13.5 17.0767ZM3 27.9229V25.4536C3 24.8344 3.18029 24.255 3.54086 23.7156C3.90144 23.1762 4.38654 22.7574 4.99616 22.4594C6.41154 21.7805 7.82788 21.2714 9.24517 20.932C10.6625 20.5925 12.0808 20.4228 13.5 20.4228C14.9192 20.4228 16.3375 20.5925 17.7548 20.932C19.1721 21.2714 20.5885 21.7805 22.0038 22.4594C22.6135 22.7574 23.0986 23.1762 23.4591 23.7156C23.8197 24.255 24 24.8344 24 25.4536V27.9229H3ZM4.5 26.4228H22.5V25.4536C22.5 25.1209 22.3928 24.8084 22.1784 24.5161C21.9639 24.2238 21.6673 23.9767 21.2885 23.7748C20.0539 23.1767 18.7809 22.7185 17.4696 22.4002C16.1583 22.082 14.8351 21.9228 13.5 21.9228C12.1649 21.9228 10.8417 22.082 9.5304 22.4002C8.2191 22.7185 6.94615 23.1767 5.71155 23.7748C5.3327 23.9767 5.03606 24.2238 4.82164 24.5161C4.60721 24.8084 4.5 25.1209 4.5 25.4536V26.4228ZM13.5 15.5767C14.325 15.5767 15.0312 15.2829 15.6188 14.6954C16.2063 14.1079 16.5 13.4017 16.5 12.5767C16.5 11.7517 16.2063 11.0454 15.6188 10.4579C15.0312 9.87045 14.325 9.5767 13.5 9.5767C12.675 9.5767 11.9688 9.87045 11.3813 10.4579C10.7938 11.0454 10.5 11.7517 10.5 12.5767C10.5 13.4017 10.7938 14.1079 11.3813 14.6954C11.9688 15.2829 12.675 15.5767 13.5 15.5767Z" fill="#3A9D80"/>
</svg>
