<svg width="36" height="36" viewBox="0 0 36 36" fill="none" xmlns="http://www.w3.org/2000/svg">
<path d="M18 17.0767C16.7625 17.0767 15.7031 16.6361 14.8219 15.7548C13.9406 14.8736 13.5 13.8142 13.5 12.5767C13.5 11.3392 13.9406 10.2798 14.8219 9.39854C15.7031 8.51729 16.7625 8.07666 18 8.07666C19.2375 8.07666 20.2969 8.51729 21.1781 9.39854C22.0594 10.2798 22.5 11.3392 22.5 12.5767C22.5 13.8142 22.0594 14.8736 21.1781 15.7548C20.2969 16.6361 19.2375 17.0767 18 17.0767ZM7.5 27.9229V25.4536C7.5 24.8344 7.68029 24.255 8.04086 23.7156C8.40144 23.1762 8.88654 22.7574 9.49616 22.4594C10.9115 21.7805 12.3279 21.2714 13.7452 20.932C15.1625 20.5925 16.5808 20.4228 18 20.4228C19.4192 20.4228 20.8375 20.5925 22.2548 20.932C23.6721 21.2714 25.0885 21.7805 26.5038 22.4594C27.1135 22.7574 27.5986 23.1762 27.9591 23.7156C28.3197 24.255 28.5 24.8344 28.5 25.4536V27.9229H7.5ZM9 26.4228H27V25.4536C27 25.1209 26.8928 24.8084 26.6784 24.5161C26.4639 24.2238 26.1673 23.9767 25.7885 23.7748C24.5539 23.1767 23.2809 22.7185 21.9696 22.4002C20.6583 22.082 19.3351 21.9228 18 21.9228C16.6649 21.9228 15.3417 22.082 14.0304 22.4002C12.7191 22.7185 11.4462 23.1767 10.2115 23.7748C9.8327 23.9767 9.53606 24.2238 9.32164 24.5161C9.10721 24.8084 9 25.1209 9 25.4536V26.4228ZM18 15.5767C18.825 15.5767 19.5313 15.2829 20.1188 14.6954C20.7063 14.1079 21 13.4017 21 12.5767C21 11.7517 20.7063 11.0454 20.1188 10.4579C19.5313 9.87045 18.825 9.5767 18 9.5767C17.175 9.5767 16.4688 9.87045 15.8813 10.4579C15.2938 11.0454 15 11.7517 15 12.5767C15 13.4017 15.2938 14.1079 15.8813 14.6954C16.4688 15.2829 17.175 15.5767 18 15.5767Z" fill="#918A4E"/>
</svg>
