<svg width="42" height="42" viewBox="0 0 42 42" fill="none" xmlns="http://www.w3.org/2000/svg">
<path d="M18.4827 27.8385L29.676 16.6452L28.4375 15.4067L18.4827 25.3615L13.4952 20.374L12.2567 21.6125L18.4827 27.8385ZM21.0059 36.75C18.8279 36.75 16.7803 36.3367 14.8629 35.5102C12.9456 34.6836 11.2778 33.5618 9.85946 32.1448C8.44117 30.7279 7.31835 29.0616 6.49101 27.1461C5.66367 25.2305 5.25 23.1838 5.25 21.0059C5.25 18.8279 5.66328 16.7803 6.48983 14.8629C7.31641 12.9456 8.43819 11.2778 9.85517 9.85946C11.2721 8.44117 12.9384 7.31836 14.8539 6.49101C16.7695 5.66367 18.8162 5.25 20.9941 5.25C23.1721 5.25 25.2197 5.66328 27.1371 6.48983C29.0544 7.31641 30.7222 8.43819 32.1405 9.85517C33.5588 11.2721 34.6816 12.9384 35.509 14.8539C36.3363 16.7695 36.75 18.8162 36.75 20.9941C36.75 23.1721 36.3367 25.2197 35.5102 27.1371C34.6836 29.0544 33.5618 30.7222 32.1448 32.1405C30.7279 33.5588 29.0616 34.6816 27.1461 35.509C25.2305 36.3363 23.1838 36.75 21.0059 36.75ZM21 35C24.9083 35 28.2188 33.6437 30.9312 30.9312C33.6437 28.2188 35 24.9083 35 21C35 17.0917 33.6437 13.7812 30.9312 11.0687C28.2188 8.35625 24.9083 7 21 7C17.0917 7 13.7812 8.35625 11.0687 11.0687C8.35625 13.7812 7 17.0917 7 21C7 24.9083 8.35625 28.2188 11.0687 30.9312C13.7812 33.6437 17.0917 35 21 35Z" fill="#67BB00"/>
</svg>
