<svg width="30" height="30" viewBox="0 0 30 30" fill="none" xmlns="http://www.w3.org/2000/svg">
<g clip-path="url(#clip0_1_124)">
<path d="M10.0708 5.92726C10.0708 8.64496 12.282 10.856 15 10.856C17.7177 10.856 19.9288 8.64505 19.9288 5.92726C19.9288 3.20872 17.7177 0.99707 15 0.99707C12.2821 0.99707 10.0708 3.20872 10.0708 5.92726ZM18.8925 5.92726C18.8925 8.07356 17.1463 9.81966 15 9.81966C12.8535 9.81966 11.1072 8.07356 11.1072 5.92726C11.1072 3.78021 12.8535 2.03345 15 2.03345C17.1463 2.03345 18.8925 3.7803 18.8925 5.92726Z" fill="#66539F"/>
<path d="M5.70947 5.69971C3.47795 5.69971 1.66235 7.51549 1.66235 9.74748C1.66235 11.9789 3.47785 13.7943 5.70947 13.7943C7.94052 13.7943 9.75573 11.9789 9.75573 9.74748C9.75573 7.51549 7.94052 5.69971 5.70947 5.69971ZM5.70947 12.758C4.04934 12.758 2.69873 11.4075 2.69873 9.74748C2.69873 8.08698 4.04934 6.73609 5.70947 6.73609C7.36912 6.73609 8.71935 8.08707 8.71935 9.74748C8.71935 11.4075 7.36912 12.758 5.70947 12.758Z" fill="#66539F"/>
<path d="M24.2907 13.7943C26.5222 13.7943 28.3377 11.9789 28.3377 9.74748C28.3377 7.51549 26.5223 5.69971 24.2907 5.69971C22.0592 5.69971 20.2437 7.51549 20.2437 9.74748C20.2437 11.9789 22.0592 13.7943 24.2907 13.7943ZM24.2907 6.73599C25.9507 6.73599 27.3013 8.08698 27.3013 9.74739C27.3013 11.4074 25.9507 12.7579 24.2907 12.7579C22.6305 12.7579 21.2799 11.4074 21.2799 9.74739C21.2799 8.08698 22.6305 6.73599 24.2907 6.73599Z" fill="#66539F"/>
<path d="M26.0662 14.5235H22.4859C22.1584 14.5235 21.8361 14.5648 21.5226 14.6444C20.73 13.0919 19.1149 12.0264 17.2556 12.0264H17.0276H13.0083H12.7802C10.9176 12.0264 9.3001 13.0957 8.50912 14.6528C8.185 14.5676 7.85156 14.5237 7.5137 14.5235H3.93364C1.76456 14.5235 0 16.2883 0 18.4572V28.4845C0 28.7707 0.231928 29.0027 0.518189 29.0027C0.804357 29.0027 1.03638 28.7707 1.03638 28.4845V18.4572C1.03638 16.8597 2.33614 15.5599 3.93374 15.5599H7.51408C7.72576 15.5605 7.93565 15.5842 8.14103 15.63C8.04432 16.0088 7.99272 16.4055 7.99272 16.8142V28.4845C7.99272 28.7707 8.22474 29.0027 8.51091 29.0027C8.79707 29.0027 9.0291 28.7707 9.0291 28.4845V16.8143C9.0291 16.3633 9.10923 15.9307 9.25566 15.5298C9.26253 15.5164 9.26912 15.5029 9.27487 15.4887C9.28259 15.47 9.28871 15.451 9.29408 15.4318C9.81151 14.1313 11.0357 13.1869 12.49 13.0751V14.957C12.49 15.2431 12.7221 15.4753 13.0082 15.4753H13.52L12.1236 25.7166C12.099 25.8974 12.1713 26.0778 12.3139 26.1916L14.6945 28.0923C14.7891 28.1678 14.9035 28.2055 15.0179 28.2055C15.1322 28.2055 15.2466 28.1678 15.3412 28.0923L17.722 26.1917C17.8647 26.0778 17.9368 25.8974 17.9122 25.7166L16.5157 15.4753H17.0276C17.3138 15.4753 17.5457 15.2431 17.5457 14.957V13.0751C18.9928 13.1865 20.2118 14.1216 20.7338 15.4118C20.7392 15.432 20.7453 15.4521 20.7532 15.472C20.7608 15.4911 20.7697 15.5093 20.7792 15.527C20.9264 15.9287 21.0067 16.3622 21.0067 16.8142V28.4845C21.0067 28.7707 21.2387 29.0027 21.5249 29.0027C21.8111 29.0027 22.0431 28.7707 22.0431 28.4845V16.8143C22.0431 16.4029 21.9909 16.0034 21.8929 15.6221C22.0868 15.5813 22.285 15.56 22.4859 15.56H26.0662C27.6639 15.56 28.9637 16.8598 28.9637 18.4573V28.4846C28.9637 28.7708 29.1957 29.0028 29.4819 29.0028C29.7681 29.0028 30.0001 28.7708 30.0001 28.4846V18.4572C30 16.2883 28.2353 14.5235 26.0662 14.5235ZM16.5093 13.0628V14.439H15.922H14.1137H13.5265V13.0628H16.5093ZM16.8454 25.5653L15.0178 27.0243L13.1902 25.5653L14.5659 15.4753H15.4696L16.8454 25.5653Z" fill="#66539F"/>
</g>
<defs>
<clipPath id="clip0_1_124">
<rect width="30" height="30" fill="white"/>
</clipPath>
</defs>
</svg>
