<svg width="28" height="28" viewBox="0 0 28 28" fill="none" xmlns="http://www.w3.org/2000/svg">
<path d="M8.74996 16.9166V10.6346C8.74996 10.1126 8.93356 9.66797 9.30077 9.30078C9.66796 8.93357 10.1126 8.74997 10.6346 8.74997H21.0852L17.4977 5.16247L18.3301 4.33008L23.3333 9.3333L18.3301 14.3589L17.4977 13.5333L21.0852 9.91663H10.6346C10.4252 9.91663 10.2532 9.98394 10.1185 10.1186C9.98393 10.2532 9.91663 10.4252 9.91663 10.6346V16.9166H8.74996ZM6.55123 23.3333C6.02922 23.3333 5.58462 23.1497 5.21741 22.7825C4.85022 22.4153 4.66663 21.9707 4.66663 21.4487V5.38457H5.83329V21.4487C5.83329 21.6581 5.9006 21.8301 6.03521 21.9647C6.16983 22.0993 6.34183 22.1666 6.55123 22.1666H19.1154C19.3248 22.1666 19.4968 22.0993 19.6314 21.9647C19.766 21.8301 19.8333 21.6581 19.8333 21.4487V16.9166H21V21.4487C21 21.9707 20.8164 22.4153 20.4492 22.7825C20.082 23.1497 19.6374 23.3333 19.1154 23.3333H6.55123Z" fill="black"/>
</svg>
