<svg width="26" height="26" viewBox="0 0 26 26" fill="none" xmlns="http://www.w3.org/2000/svg">
<path d="M4.99999 20.5834C4.50139 20.5834 4.08507 20.4164 3.75104 20.0824C3.41701 19.7483 3.25 19.332 3.25 18.8334V7.16674C3.25 6.66813 3.41701 6.25182 3.75104 5.91779C4.08507 5.58376 4.50139 5.41675 4.99999 5.41675H10.3958L12.5625 7.58341H21C21.4986 7.58341 21.9149 7.75043 22.249 8.08446C22.583 8.41848 22.75 8.8348 22.75 9.3334V18.8334C22.75 19.332 22.583 19.7483 22.249 20.0824C21.9149 20.4164 21.4986 20.5834 21 20.5834H4.99999ZM4.99999 19.5001H21C21.1945 19.5001 21.3542 19.4376 21.4792 19.3126C21.6042 19.1876 21.6667 19.0279 21.6667 18.8334V9.3334C21.6667 9.13896 21.6042 8.97924 21.4792 8.85425C21.3542 8.72925 21.1945 8.66675 21 8.66675H12.1271L9.96041 6.50008H4.99999C4.80555 6.50008 4.64583 6.56258 4.52083 6.68758C4.39583 6.81258 4.33333 6.9723 4.33333 7.16674V18.8334C4.33333 19.0279 4.39583 19.1876 4.52083 19.3126C4.64583 19.4376 4.80555 19.5001 4.99999 19.5001Z" fill="#6B6B6B"/>
</svg>
