<svg width="26" height="26" viewBox="0 0 26 26" fill="none" xmlns="http://www.w3.org/2000/svg">
<path d="M5.41683 18.4168V20.5835V5.41683V18.4168ZM6.08349 21.6668C5.59877 21.6668 5.18592 21.4963 4.84494 21.1554C4.50398 20.8144 4.3335 20.4016 4.3335 19.9168V6.08349C4.3335 5.59877 4.50398 5.18592 4.84494 4.84494C5.18592 4.50398 5.59877 4.3335 6.08349 4.3335H19.9168C20.4016 4.3335 20.8144 4.50398 21.1554 4.84494C21.4963 5.18592 21.6668 5.59877 21.6668 6.08349V9.27098H20.5835V6.08349C20.5835 5.88905 20.521 5.72933 20.396 5.60433C20.271 5.47933 20.1113 5.41683 19.9168 5.41683H6.08349C5.88905 5.41683 5.72933 5.47933 5.60433 5.60433C5.47933 5.72933 5.41683 5.88905 5.41683 6.08349V19.9168C5.41683 20.1113 5.47933 20.271 5.60433 20.396C5.72933 20.521 5.88905 20.5835 6.08349 20.5835H19.9168C20.1113 20.5835 20.271 20.521 20.396 20.396C20.521 20.271 20.5835 20.1113 20.5835 19.9168V16.7293H21.6668V19.9168C21.6668 20.4016 21.4963 20.8144 21.1554 21.1554C20.8144 21.4963 20.4016 21.6668 19.9168 21.6668H6.08349ZM14.7502 17.3335C14.2654 17.3335 13.8526 17.163 13.5116 16.8221C13.1706 16.4811 13.0002 16.0682 13.0002 15.5835V10.4168C13.0002 9.9321 13.1706 9.51925 13.5116 9.17827C13.8526 8.83731 14.2654 8.66683 14.7502 8.66683H21.0002C21.4849 8.66683 21.8977 8.83731 22.2387 9.17827C22.5797 9.51925 22.7502 9.9321 22.7502 10.4168V15.5835C22.7502 16.0682 22.5797 16.4811 22.2387 16.8221C21.8977 17.163 21.4849 17.3335 21.0002 17.3335H14.7502ZM21.0002 16.2502C21.1946 16.2502 21.3543 16.1877 21.4793 16.0627C21.6043 15.9377 21.6668 15.7779 21.6668 15.5835V10.4168C21.6668 10.2224 21.6043 10.0627 21.4793 9.93766C21.3543 9.81266 21.1946 9.75016 21.0002 9.75016H14.7502C14.5557 9.75016 14.396 9.81266 14.271 9.93766C14.146 10.0627 14.0835 10.2224 14.0835 10.4168V15.5835C14.0835 15.7779 14.146 15.9377 14.271 16.0627C14.396 16.1877 14.5557 16.2502 14.7502 16.2502H21.0002ZM17.3335 14.6252C17.7849 14.6252 18.1686 14.4672 18.4845 14.1512C18.8005 13.8352 18.9585 13.4516 18.9585 13.0002C18.9585 12.5488 18.8005 12.1651 18.4845 11.8491C18.1686 11.5331 17.7849 11.3752 17.3335 11.3752C16.8821 11.3752 16.4984 11.5331 16.1825 11.8491C15.8665 12.1651 15.7085 12.5488 15.7085 13.0002C15.7085 13.4516 15.8665 13.8352 16.1825 14.1512C16.4984 14.4672 16.8821 14.6252 17.3335 14.6252Z" fill="#6B6B6B"/>
</svg>
