<svg width="49" height="49" viewBox="0 0 49 49" fill="none" xmlns="http://www.w3.org/2000/svg">
<rect width="49" height="49" rx="15" fill="white"/>
<path d="M15.9552 36.7498C15.3032 36.7498 14.7588 36.5314 14.322 36.0946C13.8852 35.6578 13.6667 35.1134 13.6667 34.4613V16.3716C13.6667 15.7195 13.8852 15.1751 14.322 14.7383C14.7588 14.3015 15.3032 14.0831 15.9552 14.0831H18.4616V10.9229H19.9872V14.0831H30.1219V10.9229H31.5386V14.0831H34.045C34.697 14.0831 35.2414 14.3015 35.6782 14.7383C36.115 15.1751 36.3334 15.7195 36.3334 16.3716V34.4613C36.3334 35.1134 36.115 35.6578 35.6782 36.0946C35.2414 36.5314 34.697 36.7498 34.045 36.7498H15.9552ZM15.9552 35.3331H34.045C34.2629 35.3331 34.4627 35.2423 34.6443 35.0607C34.8259 34.8791 34.9167 34.6793 34.9167 34.4613V22.0382H15.0834V34.4613C15.0834 34.6793 15.1742 34.8791 15.3558 35.0607C15.5375 35.2423 15.7373 35.3331 15.9552 35.3331ZM15.0834 20.6216H34.9167V16.3716C34.9167 16.1536 34.8259 15.9538 34.6443 15.7722C34.4627 15.5906 34.2629 15.4998 34.045 15.4998H15.9552C15.7373 15.4998 15.5375 15.5906 15.3558 15.7722C15.1742 15.9538 15.0834 16.1536 15.0834 16.3716V20.6216ZM25.0001 27.0511C24.7077 27.0511 24.4529 26.9425 24.2359 26.7255C24.0189 26.5085 23.9103 26.2537 23.9103 25.9613C23.9103 25.6689 24.0189 25.4142 24.2359 25.1972C24.4529 24.9801 24.7077 24.8716 25.0001 24.8716C25.2925 24.8716 25.5472 24.9801 25.7643 25.1972C25.9813 25.4142 26.0898 25.6689 26.0898 25.9613C26.0898 26.2537 25.9813 26.5085 25.7643 26.7255C25.5472 26.9425 25.2925 27.0511 25.0001 27.0511ZM19.3334 27.0511C19.041 27.0511 18.7863 26.9425 18.5692 26.7255C18.3522 26.5085 18.2437 26.2537 18.2437 25.9613C18.2437 25.6689 18.3522 25.4142 18.5692 25.1972C18.7863 24.9801 19.041 24.8716 19.3334 24.8716C19.6258 24.8716 19.8806 24.9801 20.0976 25.1972C20.3146 25.4142 20.4232 25.6689 20.4232 25.9613C20.4232 26.2537 20.3146 26.5085 20.0976 26.7255C19.8806 26.9425 19.6258 27.0511 19.3334 27.0511ZM30.6667 27.0511C30.3743 27.0511 30.1196 26.9425 29.9026 26.7255C29.6855 26.5085 29.577 26.2537 29.577 25.9613C29.577 25.6689 29.6855 25.4142 29.9026 25.1972C30.1196 24.9801 30.3743 24.8716 30.6667 24.8716C30.9592 24.8716 31.2139 24.9801 31.4309 25.1972C31.648 25.4142 31.7565 25.6689 31.7565 25.9613C31.7565 26.2537 31.648 26.5085 31.4309 26.7255C31.2139 26.9425 30.9592 27.0511 30.6667 27.0511ZM25.0001 32.4998C24.7077 32.4998 24.4529 32.3913 24.2359 32.1742C24.0189 31.9572 23.9103 31.7024 23.9103 31.41C23.9103 31.1176 24.0189 30.8629 24.2359 30.6459C24.4529 30.4288 24.7077 30.3203 25.0001 30.3203C25.2925 30.3203 25.5472 30.4288 25.7643 30.6459C25.9813 30.8629 26.0898 31.1176 26.0898 31.41C26.0898 31.7024 25.9813 31.9572 25.7643 32.1742C25.5472 32.3913 25.2925 32.4998 25.0001 32.4998ZM19.3334 32.4998C19.041 32.4998 18.7863 32.3913 18.5692 32.1742C18.3522 31.9572 18.2437 31.7024 18.2437 31.41C18.2437 31.1176 18.3522 30.8629 18.5692 30.6459C18.7863 30.4288 19.041 30.3203 19.3334 30.3203C19.6258 30.3203 19.8806 30.4288 20.0976 30.6459C20.3146 30.8629 20.4232 31.1176 20.4232 31.41C20.4232 31.7024 20.3146 31.9572 20.0976 32.1742C19.8806 32.3913 19.6258 32.4998 19.3334 32.4998ZM30.6667 32.4998C30.3743 32.4998 30.1196 32.3913 29.9026 32.1742C29.6855 31.9572 29.577 31.7024 29.577 31.41C29.577 31.1176 29.6855 30.8629 29.9026 30.6459C30.1196 30.4288 30.3743 30.3203 30.6667 30.3203C30.9592 30.3203 31.2139 30.4288 31.4309 30.6459C31.648 30.8629 31.7565 31.1176 31.7565 31.41C31.7565 31.7024 31.648 31.9572 31.4309 32.1742C31.2139 32.3913 30.9592 32.4998 30.6667 32.4998Z" fill="#2B75E1"/>
</svg>
