<svg width="34" height="34" viewBox="0 0 34 34" fill="none" xmlns="http://www.w3.org/2000/svg">
<path d="M16.9999 31.1668C14.1193 31.1668 11.5376 30.4013 9.25456 28.8702C6.97153 27.3391 5.25791 25.2795 4.11369 22.6914V27.3527H2.69702V20.2694H9.78035V21.6861H5.23884C6.15424 24.1126 7.68852 26.0632 9.84166 27.538C11.9948 29.0128 14.3809 29.7502 16.9999 29.7502C18.6981 29.7502 20.2932 29.4455 21.7852 28.8361C23.2773 28.2268 24.5913 27.3859 25.7274 26.3134C26.8635 25.2409 27.7861 23.9677 28.4953 22.4938C29.2046 21.0199 29.6137 19.4248 29.7227 17.7085H31.1393C31.0485 19.5847 30.614 21.3401 29.8357 22.9747C29.0575 24.6093 28.0372 26.0351 26.7749 27.2519C25.5126 28.4688 24.0415 29.4255 22.3615 30.122C20.6814 30.8186 18.8942 31.1668 16.9999 31.1668ZM2.86047 16.2918C2.98762 14.3248 3.44939 12.5195 4.24579 10.8758C5.04222 9.2321 6.08066 7.81088 7.36111 6.61217C8.64157 5.41346 10.1082 4.484 11.761 3.82378C13.4137 3.16359 15.1601 2.8335 16.9999 2.8335C19.826 2.8335 22.4077 3.60357 24.7452 5.14372C27.0827 6.6839 28.7964 8.7753 29.8861 11.4179V6.64759H31.3028V13.7309H24.2194V12.3143H28.761C27.9001 9.96042 26.3885 8.02794 24.2262 6.51683C22.064 5.00572 19.6552 4.25016 16.9999 4.25016C15.3744 4.25016 13.8201 4.54575 12.3372 5.13693C10.8542 5.72812 9.5356 6.55089 8.3814 7.60522C7.22717 8.65955 6.28181 9.92365 5.54534 11.3975C4.80886 12.8714 4.38612 14.5028 4.27714 16.2918H2.86047Z" fill="#225B74"/>
</svg>
