<svg width="26" height="26" viewBox="0 0 26 26" fill="none" xmlns="http://www.w3.org/2000/svg">
<path d="M13.0001 20.0834C12.7022 20.0834 12.4471 19.9774 12.235 19.7652C12.0228 19.5531 11.9167 19.298 11.9167 19.0001C11.9167 18.7022 12.0228 18.4471 12.235 18.235C12.4471 18.0228 12.7022 17.9167 13.0001 17.9167C13.298 17.9167 13.553 18.0228 13.7652 18.235C13.9773 18.4471 14.0834 18.7022 14.0834 19.0001C14.0834 19.298 13.9773 19.5531 13.7652 19.7652C13.553 19.9774 13.298 20.0834 13.0001 20.0834ZM13.0001 14.0834C12.7022 14.0834 12.4471 13.9774 12.235 13.7652C12.0228 13.553 11.9167 13.298 11.9167 13.0001C11.9167 12.7022 12.0228 12.4471 12.235 12.235C12.4471 12.0228 12.7022 11.9168 13.0001 11.9168C13.298 11.9168 13.553 12.0228 13.7652 12.235C13.9773 12.4471 14.0834 12.7022 14.0834 13.0001C14.0834 13.298 13.9773 13.553 13.7652 13.7652C13.553 13.9774 13.298 14.0834 13.0001 14.0834ZM13.0001 8.08344C12.7022 8.08344 12.4471 7.97736 12.235 7.76521C12.0228 7.55306 11.9167 7.29802 11.9167 7.00008C11.9167 6.70216 12.0228 6.44713 12.235 6.23498C12.4471 6.02282 12.7022 5.91675 13.0001 5.91675C13.298 5.91675 13.553 6.02282 13.7652 6.23498C13.9773 6.44713 14.0834 6.70216 14.0834 7.00008C14.0834 7.29802 13.9773 7.55306 13.7652 7.76521C13.553 7.97736 13.298 8.08344 13.0001 8.08344Z" fill="black"/>
</svg>
