<svg width="30" height="30" viewBox="0 0 30 30" fill="none" xmlns="http://www.w3.org/2000/svg">
<path d="M14.375 6.77863V2.54785H15.625V6.77863H14.375ZM21.2452 9.63923L20.3606 8.73054L23.363 5.72095L24.2476 6.63682L21.2452 9.63923ZM23.2212 15.6248V14.3748H27.452V15.6248H23.2212ZM23.363 24.2474L20.3606 21.245L21.2693 20.3363L24.2789 23.3315L23.363 24.2474ZM8.77888 9.66326L5.72838 6.61276L6.64425 5.74498L9.6635 8.77863L8.77888 9.66326ZM8.22119 23.894H13.3654C14.0465 23.894 14.6335 23.6476 15.1262 23.1549C15.619 22.6621 15.8654 22.0751 15.8654 21.394C15.8654 20.7129 15.6282 20.13 15.1539 19.6452C14.6795 19.1605 14.1018 18.9181 13.4207 18.9181H12.2116L11.7548 17.8267C11.4311 17.0751 10.9287 16.4802 10.2476 16.0419C9.56655 15.6036 8.81094 15.3844 7.98082 15.3844C6.82696 15.3844 5.84939 15.785 5.0481 16.5863C4.24683 17.3876 3.84619 18.3652 3.84619 19.519C3.84619 20.737 4.27087 21.7706 5.12022 22.62C5.96958 23.4693 7.00323 23.894 8.22119 23.894ZM8.22119 25.144C6.6683 25.144 5.34257 24.5948 4.244 23.4962C3.14546 22.3976 2.59619 21.0719 2.59619 19.519C2.59619 18.0142 3.11742 16.7406 4.15988 15.6981C5.20236 14.6556 6.476 14.1344 7.98082 14.1344C9.11863 14.1344 10.1511 14.4569 11.0782 15.1019C12.0052 15.747 12.6627 16.6024 13.0505 17.6681C14.0986 17.6681 15.0341 17.9838 15.857 18.6152C16.6799 19.2466 17.0994 20.1793 17.1154 21.4133C17.1058 22.4405 16.7392 23.3191 16.0157 24.0491C15.2921 24.779 14.4087 25.144 13.3654 25.144H8.22119ZM17.0673 20.9325C17.0113 20.7241 16.9552 20.5222 16.8991 20.3267C16.843 20.1312 16.7869 19.9293 16.7308 19.7209C17.7164 19.3091 18.5076 18.6825 19.1046 17.8411C19.7016 16.9998 20 16.0527 20 14.9998C20 13.6248 19.5105 12.4477 18.5313 11.4685C17.5521 10.4894 16.375 9.99979 15 9.99979C13.702 9.99979 12.5761 10.4341 11.6226 11.3027C10.6691 12.1713 10.1411 13.2546 10.0385 14.5527C9.83017 14.4966 9.61943 14.4429 9.40629 14.3916C9.19314 14.3403 8.9824 14.2867 8.77407 14.2306C8.96959 12.6536 9.66069 11.3459 10.8474 10.3075C12.0341 9.26902 13.4183 8.74979 15 8.74979C16.7308 8.74979 18.2052 9.35876 19.4231 10.5767C20.6411 11.7947 21.25 13.269 21.25 14.9998C21.25 16.3315 20.8678 17.5338 20.1034 18.6068C19.339 19.6797 18.327 20.4549 17.0673 20.9325Z" fill="#2B75E1"/>
</svg>
