<svg width="36" height="36" viewBox="0 0 36 36" fill="none" xmlns="http://www.w3.org/2000/svg">
<path d="M8.42306 30C7.75191 30 7.18028 29.764 6.70815 29.2918C6.23605 28.8197 6 28.2481 6 27.5769V8.42306C6 7.75191 6.23605 7.18027 6.70815 6.70815C7.18028 6.23605 7.75191 6 8.42306 6H15.4731C15.3365 5.2346 15.5197 4.54325 16.0226 3.92595C16.5255 3.30865 17.1846 3 18 3C18.8346 3 19.5034 3.30865 20.0063 3.92595C20.5092 4.54325 20.6827 5.2346 20.5269 6H27.5769C28.2481 6 28.8197 6.23605 29.2919 6.70815C29.764 7.18027 30 7.75191 30 8.42306V27.5769C30 28.2481 29.764 28.8197 29.2919 29.2918C28.8197 29.764 28.2481 30 27.5769 30H8.42306ZM8.42306 28.5H27.5769C27.8077 28.5 28.0192 28.4039 28.2115 28.2115C28.4039 28.0192 28.5 27.8077 28.5 27.5769V8.42306C28.5 8.19231 28.4039 7.98078 28.2115 7.78845C28.0192 7.59615 27.8077 7.5 27.5769 7.5H8.42306C8.19231 7.5 7.98078 7.59615 7.78845 7.78845C7.59615 7.98078 7.5 8.19231 7.5 8.42306V27.5769C7.5 27.8077 7.59615 28.0192 7.78845 28.2115C7.98078 28.4039 8.19231 28.5 8.42306 28.5ZM11.25 24.4038H20.25V22.9038H11.25V24.4038ZM11.25 18.75H24.75V17.25H11.25V18.75ZM11.25 13.0962H24.75V11.5962H11.25V13.0962ZM18 6.66345C18.325 6.66345 18.5938 6.5572 18.8063 6.3447C19.0188 6.1322 19.125 5.86345 19.125 5.53845C19.125 5.21345 19.0188 4.9447 18.8063 4.7322C18.5938 4.5197 18.325 4.41345 18 4.41345C17.675 4.41345 17.4062 4.5197 17.1938 4.7322C16.9813 4.9447 16.875 5.21345 16.875 5.53845C16.875 5.86345 16.9813 6.1322 17.1938 6.3447C17.4062 6.5572 17.675 6.66345 18 6.66345Z" fill="#386C83"/>
</svg>
