<svg width="26" height="26" viewBox="0 0 26 26" fill="none" xmlns="http://www.w3.org/2000/svg">
<path d="M6.08349 21.6665C5.59877 21.6665 5.18592 21.496 4.84494 21.1551C4.50398 20.8141 4.3335 20.4012 4.3335 19.9165V6.08316C4.3335 5.59844 4.50398 5.18559 4.84494 4.84461C5.18592 4.50365 5.59877 4.33317 6.08349 4.33317H11.1752C11.0766 3.78038 11.2088 3.28107 11.572 2.83525C11.9352 2.38942 12.4113 2.1665 13.0002 2.1665C13.6029 2.1665 14.0859 2.38942 14.4491 2.83525C14.8123 3.28107 14.9377 3.78038 14.8252 4.33317H19.9168C20.4016 4.33317 20.8144 4.50365 21.1554 4.84461C21.4963 5.18559 21.6668 5.59844 21.6668 6.08316V19.9165C21.6668 20.4012 21.4963 20.8141 21.1554 21.1551C20.8144 21.496 20.4016 21.6665 19.9168 21.6665H6.08349ZM6.08349 20.5832H19.9168C20.0835 20.5832 20.2363 20.5137 20.3752 20.3748C20.5141 20.2359 20.5835 20.0832 20.5835 19.9165V6.08316C20.5835 5.91651 20.5141 5.76373 20.3752 5.62483C20.2363 5.48595 20.0835 5.4165 19.9168 5.4165H6.08349C5.91683 5.4165 5.76406 5.48595 5.62515 5.62483C5.48627 5.76373 5.41683 5.91651 5.41683 6.08316V19.9165C5.41683 20.0832 5.48627 20.2359 5.62515 20.3748C5.76406 20.5137 5.91683 20.5832 6.08349 20.5832ZM8.12516 17.6248H14.6252V16.5415H8.12516V17.6248ZM8.12516 13.5415H17.8752V12.4582H8.12516V13.5415ZM8.12516 9.45818H17.8752V8.37484H8.12516V9.45818ZM13.0002 4.81233C13.2349 4.81233 13.429 4.73559 13.5825 4.58212C13.7359 4.42865 13.8127 4.23455 13.8127 3.99983C13.8127 3.76511 13.7359 3.57101 13.5825 3.41754C13.429 3.26407 13.2349 3.18733 13.0002 3.18733C12.7654 3.18733 12.5713 3.26407 12.4179 3.41754C12.2644 3.57101 12.1877 3.76511 12.1877 3.99983C12.1877 4.23455 12.2644 4.42865 12.4179 4.58212C12.5713 4.73559 12.7654 4.81233 13.0002 4.81233Z" fill="#6B6B6B"/>
</svg>
