<svg width="36" height="36" viewBox="0 0 36 36" fill="none" xmlns="http://www.w3.org/2000/svg">
<path d="M10.5577 25.2114H17.0192C17.2116 25.2114 17.375 25.1441 17.5096 25.0095C17.6442 24.8749 17.7116 24.7114 17.7116 24.5191V23.5384C17.7116 23.3461 17.6442 23.1826 17.5096 23.048C17.375 22.9134 17.2116 22.846 17.0192 22.846H10.5577C10.3654 22.846 10.2019 22.9134 10.0673 23.048C9.93269 23.1826 9.86539 23.3461 9.86539 23.5384V24.5191C9.86539 24.7114 9.93269 24.8749 10.0673 25.0095C10.2019 25.1441 10.3654 25.2114 10.5577 25.2114ZM10.4135 14.2499H17.1635C17.3289 14.2499 17.4808 14.1807 17.6192 14.0422C17.7577 13.9037 17.8269 13.7518 17.8269 13.5864C17.8269 13.421 17.7577 13.2691 17.6192 13.1307C17.4808 12.9922 17.3289 12.9229 17.1635 12.9229H10.4135C10.2481 12.9229 10.0962 12.9922 9.95768 13.1307C9.81923 13.2691 9.75 13.421 9.75 13.5864C9.75 13.7518 9.81923 13.9037 9.95768 14.0422C10.0962 14.1807 10.2481 14.2499 10.4135 14.2499ZM10.4135 11.0768H17.1635C17.3289 11.0768 17.4808 11.0076 17.6192 10.8691C17.7577 10.7307 17.8269 10.5787 17.8269 10.4133C17.8269 10.248 17.7577 10.096 17.6192 9.95756C17.4808 9.81911 17.3289 9.74988 17.1635 9.74988H10.4135C10.2481 9.74988 10.0962 9.81911 9.95768 9.95756C9.81923 10.096 9.75 10.248 9.75 10.4133C9.75 10.5787 9.81923 10.7307 9.95768 10.8691C10.0962 11.0076 10.2481 11.0768 10.4135 11.0768ZM22.5 15.2884V13.7883H24.5769C24.8462 13.7883 25.0673 13.7018 25.2404 13.5287C25.4135 13.3556 25.5 13.1345 25.5 12.8653V11.1345C25.5 10.8653 25.4135 10.6441 25.2404 10.471C25.0673 10.298 24.8462 10.2114 24.5769 10.2114H22.5V8.71139H24.5769C25.2433 8.71139 25.8137 8.94866 26.2883 9.42318C26.7628 9.89771 27 10.4681 27 11.1345V11.2499H29.5385C29.751 11.2499 29.9291 11.3219 30.0729 11.4658C30.2166 11.6097 30.2885 11.7881 30.2885 12.0009C30.2885 12.2137 30.2166 12.3917 30.0729 12.535C29.9291 12.6782 29.751 12.7499 29.5385 12.7499H27V12.8653C27 13.5316 26.7628 14.1021 26.2883 14.5766C25.8137 15.0511 25.2433 15.2884 24.5769 15.2884H22.5ZM16.7885 21.346H15.2885V16.2114H20.0769C20.3462 16.2114 20.5673 16.1249 20.7404 15.9518C20.9135 15.7787 21 15.5576 21 15.2884V8.71139C21 8.44217 20.9135 8.22102 20.7404 8.04794C20.5673 7.87487 20.3462 7.78833 20.0769 7.78833H9.57694C8.75194 7.78833 8.04569 8.08208 7.45819 8.66958C6.87069 9.25708 6.57694 9.96333 6.57694 10.7883V13.2114C6.57694 14.0364 6.87069 14.7427 7.45819 15.3302C8.04569 15.9177 8.75194 16.2114 9.57694 16.2114H12.2885V21.346H10.7885V17.7114H9.57694C8.33942 17.7114 7.28003 17.2708 6.39878 16.3896C5.51753 15.5083 5.0769 14.4489 5.0769 13.2114V10.7883C5.0769 9.55083 5.51753 8.49146 6.39878 7.61021C7.28003 6.72896 8.33942 6.28833 9.57694 6.28833H20.0769C20.7433 6.28833 21.3137 6.52559 21.7882 7.00012C22.2627 7.47464 22.5 8.04507 22.5 8.71139V15.2884C22.5 15.9547 22.2627 16.5251 21.7882 16.9996C21.3137 17.4742 20.7433 17.7114 20.0769 17.7114H16.7885V21.346ZM10.1827 26.7114C9.67788 26.7114 9.24879 26.5348 8.89542 26.1814C8.54207 25.828 8.36539 25.3989 8.36539 24.8941V23.1634C8.36539 22.6585 8.54207 22.2295 8.89542 21.8761C9.24879 21.5227 9.67788 21.346 10.1827 21.346H17.3942C17.8991 21.346 18.3281 21.5227 18.6815 21.8761C19.0349 22.2295 19.2116 22.6585 19.2116 23.1634V24.8941C19.2116 25.3989 19.0349 25.828 18.6815 26.1814C18.3281 26.5348 17.8991 26.7114 17.3942 26.7114H10.1827ZM17.0192 25.2114H9.86539H17.7116H17.0192Z" fill="white"/>
</svg>
