<svg width="39" height="39" viewBox="0 0 39 39" fill="none" xmlns="http://www.w3.org/2000/svg">
<path d="M25.3125 19.5L19.5625 25.25L18.3937 24.1L22.1812 20.3125L8.125 20.3125L8.125 18.6875L22.1812 18.6875L18.3937 14.9L19.5625 13.75L25.3125 19.5ZM30.875 28.25C30.875 28.9979 30.6245 29.6224 30.1234 30.1234C29.6224 30.6245 28.9979 30.875 28.25 30.875L24.3125 30.875L24.3125 29.25L28.25 29.25C28.5 29.25 28.7292 29.1458 28.9375 28.9375C29.1458 28.7292 29.25 28.5 29.25 28.25L29.25 10.75C29.25 10.5 29.1458 10.2708 28.9375 10.0625C28.7292 9.85416 28.5 9.75 28.25 9.75L24.3125 9.75L24.3125 8.125L28.25 8.125C28.9979 8.125 29.6224 8.37552 30.1234 8.87656C30.6245 9.37761 30.875 10.0021 30.875 10.75L30.875 28.25Z" fill="#B56E1B"/>
</svg>
