<svg width="26" height="26" viewBox="0 0 26 26" fill="none" xmlns="http://www.w3.org/2000/svg">
<path d="M10.8333 12.3335C9.93958 12.3335 9.17448 12.0153 8.53802 11.3788C7.90156 10.7424 7.58333 9.97727 7.58333 9.08352C7.58333 8.18976 7.90156 7.42464 8.53802 6.78818C9.17448 6.15173 9.93958 5.8335 10.8333 5.8335C11.7271 5.8335 12.4922 6.15173 13.1286 6.78818C13.7651 7.42464 14.0833 8.18976 14.0833 9.08352C14.0833 9.97727 13.7651 10.7424 13.1286 11.3788C12.4922 12.0153 11.7271 12.3335 10.8333 12.3335ZM3.25 20.1669V18.3835C3.25 17.8849 3.37569 17.4537 3.62708 17.0898C3.87847 16.7259 4.23333 16.4363 4.69167 16.221C5.57083 15.7932 6.47708 15.4412 7.41041 15.1648C8.34375 14.8884 9.48473 14.7502 10.8333 14.7502H11.0875C11.1542 14.7502 11.2347 14.7543 11.3292 14.7627C11.2542 14.9488 11.1948 15.1311 11.151 15.3095C11.1073 15.488 11.0653 15.6627 11.025 15.8335H10.8333C9.62083 15.8335 8.56354 15.9578 7.66147 16.2064C6.75938 16.455 5.94167 16.7766 5.20834 17.171C4.87917 17.3446 4.65104 17.5266 4.52395 17.7169C4.39687 17.9071 4.33333 18.1293 4.33333 18.3835V19.0835H11.1583C11.2111 19.2543 11.2757 19.438 11.3521 19.6346C11.4285 19.8311 11.5125 20.0085 11.6042 20.1669H3.25ZM17.5625 20.6877L17.4042 19.4377C17.1042 19.3752 16.8212 19.27 16.5552 19.1221C16.2892 18.9742 16.05 18.7863 15.8375 18.5585L14.6625 19.0252L14.2042 18.246L15.2 17.496C15.0806 17.1877 15.0208 16.8696 15.0208 16.5418C15.0208 16.2141 15.0806 15.896 15.2 15.5877L14.225 14.796L14.6833 14.0168L15.8375 14.5043C16.0361 14.2766 16.2719 14.0922 16.5448 13.9512C16.8177 13.8103 17.1042 13.7085 17.4042 13.646L17.5625 12.396H18.4792L18.6167 13.646C18.9167 13.7085 19.2031 13.8113 19.4761 13.9544C19.749 14.0974 19.9847 14.2849 20.1833 14.5168L21.3375 14.0168L21.7959 14.8085L20.8209 15.6002C20.9403 15.9046 21 16.2217 21 16.5514C21 16.8812 20.9403 17.196 20.8209 17.496L21.8167 18.246L21.3584 19.0252L20.1833 18.5585C19.9708 18.7863 19.7316 18.9742 19.4656 19.1221C19.1997 19.27 18.9167 19.3752 18.6167 19.4377L18.4792 20.6877H17.5625ZM18.0019 18.5002C18.5409 18.5002 19.0017 18.3083 19.3844 17.9244C19.767 17.5405 19.9583 17.079 19.9583 16.54C19.9583 16.0009 19.7664 15.5401 19.3825 15.1575C18.9987 14.7748 18.5372 14.5835 17.9981 14.5835C17.4591 14.5835 16.9983 14.7755 16.6156 15.1593C16.233 15.5432 16.0417 16.0046 16.0417 16.5437C16.0417 17.0827 16.2336 17.5436 16.6175 17.9262C17.0013 18.3089 17.4628 18.5002 18.0019 18.5002ZM10.8333 11.2502C11.4292 11.2502 11.9392 11.038 12.3635 10.6137C12.7878 10.1894 13 9.67936 13 9.08352C13 8.48769 12.7878 7.97762 12.3635 7.55332C11.9392 7.12901 11.4292 6.91686 10.8333 6.91686C10.2375 6.91686 9.72743 7.12901 9.30312 7.55332C8.87882 7.97762 8.66667 8.48769 8.66667 9.08352C8.66667 9.67936 8.87882 10.1894 9.30312 10.6137C9.72743 11.038 10.2375 11.2502 10.8333 11.2502Z" fill="#6B6B6B"/>
</svg>
