<svg width="26" height="26" viewBox="0 0 26 26" fill="none" xmlns="http://www.w3.org/2000/svg">
<path d="M15.646 22.7167C15.3585 22.7931 15.0956 22.7413 14.8574 22.5615C14.6193 22.3816 14.5002 22.1389 14.5002 21.8333V17.0417C14.5002 16.7361 14.6227 16.4969 14.8678 16.324C15.113 16.151 15.3814 16.1028 15.6731 16.1792C16.23 16.3319 16.7939 16.4375 17.3647 16.4958C17.9356 16.5542 18.5085 16.5833 19.0835 16.5833C19.6585 16.5833 20.2359 16.5507 20.8158 16.4854C21.3957 16.4201 21.9641 16.3111 22.521 16.1583C22.8085 16.068 23.0713 16.1163 23.3095 16.3031C23.5477 16.4899 23.6668 16.7361 23.6668 17.0417V21.8333C23.6668 22.1389 23.5477 22.3851 23.3095 22.5719C23.0713 22.7587 22.8085 22.8069 22.521 22.7167C21.9641 22.5639 21.3957 22.4549 20.8158 22.3896C20.2359 22.3243 19.6585 22.2917 19.0835 22.2917C18.5085 22.2917 17.931 22.3243 17.3512 22.3896C16.7713 22.4549 16.2029 22.5639 15.646 22.7167ZM10.9793 22.75L10.5876 19.6167C10.2418 19.5125 9.86785 19.3486 9.46577 19.125C9.06369 18.9014 8.72168 18.6618 8.43972 18.4063L5.55015 19.6354L3.5293 16.1146L6.02722 14.2312C5.99528 14.0354 5.96889 13.8337 5.94806 13.626C5.92722 13.4184 5.9168 13.2167 5.9168 13.0208C5.9168 12.8389 5.92722 12.6476 5.94806 12.4469C5.96889 12.2462 5.99528 12.0202 6.02722 11.7688L3.5293 9.88542L5.55015 6.40624L8.4189 7.61459C8.74251 7.34514 9.0925 7.10209 9.46889 6.88542C9.84527 6.66876 10.2113 6.50139 10.5668 6.38333L10.9793 3.25H15.021L15.4127 6.40415C15.8279 6.54999 16.1949 6.71735 16.5137 6.90625C16.8325 7.09513 17.1606 7.33124 17.4981 7.61459L20.4502 6.40624L22.471 9.88542L19.8897 11.8312C19.9495 12.0549 19.9828 12.2601 19.9897 12.4469C19.9967 12.6337 20.0002 12.8181 20.0002 13V13.2708C20.0002 13.3542 19.996 13.4444 19.9876 13.5417H18.8502C18.8585 13.4444 18.8647 13.3542 18.8689 13.2708C18.8731 13.1875 18.8751 13.0972 18.8751 13C18.871 12.6847 18.8508 12.4066 18.8147 12.1656C18.7786 11.9246 18.7244 11.6729 18.6522 11.4104L21.0647 9.5875L19.9876 7.74583L17.2231 8.90416C16.8953 8.54444 16.4644 8.20729 15.9304 7.89271C15.3963 7.57812 14.8911 7.36945 14.4147 7.26667L14.0835 4.33333H11.9231L11.5856 7.24582C11.0397 7.3625 10.538 7.55035 10.0803 7.80937C9.62271 8.0684 9.16751 8.4243 8.71473 8.87708L6.01265 7.74583L4.93557 9.5875L7.28557 11.3417C7.19529 11.5847 7.13209 11.8486 7.09598 12.1333C7.05987 12.4181 7.04182 12.7139 7.04182 13.0208C7.04182 13.2958 7.05987 13.5688 7.09598 13.8396C7.13209 14.1104 7.18835 14.3743 7.26474 14.6313L4.93557 16.4125L6.01265 18.2542L8.6939 17.1167C9.12723 17.5542 9.61821 17.916 10.1668 18.2021C10.7154 18.4882 11.2988 18.6972 11.9168 18.8292V22.75H10.9793ZM11.9168 15.5042V14.2479C11.7446 14.1035 11.6064 13.9215 11.5022 13.7021C11.3981 13.4826 11.346 13.2486 11.346 13C11.346 12.5486 11.504 12.1649 11.8199 11.849C12.1359 11.533 12.5196 11.375 12.971 11.375C13.4224 11.375 13.806 11.533 14.122 11.849C14.438 12.1649 14.596 12.5486 14.596 13C14.596 13.1014 14.5852 13.1983 14.5637 13.2906C14.5422 13.383 14.5078 13.4667 14.4606 13.5417H15.621C15.6474 13.4444 15.6637 13.3552 15.6699 13.2739C15.6762 13.1927 15.6793 13.1014 15.6793 13C15.6793 12.2444 15.4168 11.6042 14.8918 11.0792C14.3668 10.5542 13.7265 10.2917 12.971 10.2917C12.2113 10.2917 11.5699 10.5542 11.047 11.0792C10.5241 11.6042 10.2626 12.2444 10.2626 13C10.2626 13.5611 10.4137 14.066 10.7158 14.5146C11.0179 14.9632 11.4182 15.2931 11.9168 15.5042Z" fill="#6B6B6B"/>
</svg>
